<svg width="131" height="138" viewBox="0 0 131 138" fill="none" xmlns="http://www.w3.org/2000/svg">
<path d="M46.3379 115.342C46.3574 115.378 46.39 115.443 46.4355 115.537C46.4844 115.628 46.5381 115.741 46.5967 115.874C46.6553 116.004 46.7155 116.152 46.7773 116.318C46.8424 116.484 46.901 116.659 46.9531 116.841C47.0052 117.023 47.0475 117.212 47.0801 117.407C47.1159 117.599 47.1338 117.788 47.1338 117.974C47.1305 118.273 47.085 118.555 46.9971 118.818C46.9124 119.079 46.7855 119.307 46.6162 119.502C46.4502 119.697 46.2451 119.852 46.001 119.966C45.7568 120.076 45.4736 120.132 45.1514 120.132C44.9951 120.132 44.8551 120.114 44.7314 120.078C44.6077 120.046 44.4971 119.998 44.3994 119.937C44.3018 119.875 44.2155 119.803 44.1406 119.722C44.069 119.64 44.0055 119.551 43.9502 119.453C43.8786 119.554 43.8053 119.647 43.7305 119.731C43.6556 119.816 43.5661 119.889 43.4619 119.951C43.361 120.01 43.2389 120.055 43.0957 120.088C42.9525 120.12 42.7783 120.137 42.5732 120.137C42.3877 120.137 42.2249 120.119 42.085 120.083C41.945 120.047 41.8278 120.007 41.7334 119.961C41.7529 120.352 41.7139 120.706 41.6162 121.025C41.5218 121.348 41.3835 121.634 41.2012 121.885C41.0189 122.135 40.7992 122.354 40.542 122.539C40.2881 122.728 40.013 122.882 39.7168 123.003C39.4206 123.123 39.1097 123.213 38.7842 123.271C38.4619 123.333 38.1396 123.364 37.8174 123.364C37.3389 123.364 36.8978 123.285 36.4941 123.125C36.0905 122.969 35.7406 122.747 35.4443 122.461C35.1514 122.178 34.9219 121.836 34.7559 121.436C34.5898 121.038 34.5068 120.597 34.5068 120.112C34.5166 119.829 34.5524 119.543 34.6143 119.253C34.6794 118.96 34.7607 118.677 34.8584 118.403C34.9593 118.13 35.07 117.871 35.1904 117.627C35.3141 117.383 35.4395 117.165 35.5664 116.973L36.5771 117.72C36.4632 117.902 36.3525 118.091 36.2451 118.286C36.141 118.481 36.0465 118.682 35.9619 118.887C35.8805 119.089 35.8154 119.295 35.7666 119.507C35.7178 119.718 35.6934 119.932 35.6934 120.146C35.6836 120.417 35.7275 120.669 35.8252 120.903C35.9261 121.141 36.0693 121.348 36.2549 121.523C36.4404 121.702 36.6634 121.842 36.9238 121.943C37.1875 122.048 37.4788 122.1 37.7979 122.1C38.1494 122.1 38.4668 122.067 38.75 122.002C39.0332 121.937 39.2822 121.844 39.4971 121.724C39.7119 121.603 39.8893 121.46 40.0293 121.294C40.1725 121.131 40.2783 120.949 40.3467 120.747C40.4378 120.444 40.4801 120.145 40.4736 119.849C40.4671 119.549 40.4264 119.253 40.3516 118.96C40.2799 118.664 40.1823 118.369 40.0586 118.076C39.9349 117.783 39.8031 117.49 39.6631 117.197L40.7617 116.523C40.8073 116.641 40.861 116.784 40.9229 116.953C40.9847 117.122 41.0547 117.298 41.1328 117.48C41.2109 117.663 41.2988 117.843 41.3965 118.022C41.4941 118.201 41.5999 118.358 41.7139 118.491C41.8278 118.625 41.9515 118.729 42.085 118.804C42.2217 118.875 42.3665 118.896 42.5195 118.867C42.6823 118.864 42.8109 118.823 42.9053 118.745C43.0029 118.667 43.0778 118.566 43.1299 118.442C43.182 118.315 43.2145 118.172 43.2275 118.013C43.2438 117.85 43.252 117.682 43.252 117.51L43.2275 116.685L44.4238 116.562L44.4385 116.787L44.4531 117.139C44.4564 117.214 44.4645 117.31 44.4775 117.427C44.4906 117.544 44.5101 117.668 44.5361 117.798C44.5622 117.928 44.5947 118.06 44.6338 118.193C44.6729 118.327 44.7217 118.447 44.7803 118.555C44.8389 118.659 44.9056 118.745 44.9805 118.813C45.0586 118.879 45.1481 118.911 45.249 118.911C45.5029 118.911 45.6901 118.826 45.8105 118.657C45.931 118.485 45.9912 118.236 45.9912 117.91C45.9912 117.786 45.9701 117.65 45.9277 117.5C45.8887 117.347 45.8333 117.186 45.7617 117.017C45.6934 116.847 45.612 116.672 45.5176 116.489C45.4264 116.304 45.3288 116.117 45.2246 115.928L46.3379 115.342ZM51.6113 120.146C51.5723 120.146 51.5218 120.145 51.46 120.142C51.3981 120.142 51.3298 120.135 51.2549 120.122C51.18 120.109 51.1003 120.088 51.0156 120.059C50.9342 120.033 50.8529 119.993 50.7715 119.941C50.7292 120.352 50.6038 120.744 50.3955 121.118C50.1872 121.496 49.9251 121.849 49.6094 122.178C49.2969 122.507 48.9437 122.808 48.5498 123.081C48.1592 123.354 47.7572 123.594 47.3438 123.799L46.7969 122.671C47.0247 122.554 47.2542 122.427 47.4854 122.29C47.7132 122.153 47.9313 122.007 48.1396 121.851C48.348 121.694 48.5417 121.532 48.7207 121.362C48.903 121.193 49.0592 121.016 49.1895 120.83C49.3229 120.645 49.4271 120.454 49.502 120.259C49.5801 120.063 49.6191 119.863 49.6191 119.658C49.6191 119.632 49.6175 119.606 49.6143 119.58C49.6143 119.551 49.6126 119.523 49.6094 119.497V119.502C49.5866 119.32 49.5492 119.136 49.4971 118.95C49.445 118.761 49.3864 118.579 49.3213 118.403C49.2594 118.228 49.1976 118.06 49.1357 117.9C49.0739 117.738 49.0218 117.591 48.9795 117.461L50.1514 116.973C50.2783 117.354 50.3971 117.669 50.5078 117.92C50.6217 118.167 50.7357 118.364 50.8496 118.511C50.9635 118.654 51.0791 118.755 51.1963 118.813C51.3167 118.869 51.4486 118.896 51.5918 118.896H51.6162C51.7041 118.896 51.7855 118.914 51.8604 118.95C51.9385 118.983 52.0052 119.028 52.0605 119.087C52.1191 119.142 52.1647 119.209 52.1973 119.287C52.2298 119.362 52.2461 119.442 52.2461 119.526C52.2461 119.614 52.2298 119.696 52.1973 119.771C52.1647 119.845 52.1191 119.912 52.0605 119.971C52.0052 120.026 51.9385 120.068 51.8604 120.098C51.7822 120.13 51.6992 120.146 51.6113 120.146ZM50.9131 119.521C50.9131 119.434 50.9294 119.352 50.9619 119.277C50.9945 119.199 51.0384 119.132 51.0938 119.077C51.1491 119.022 51.2158 118.978 51.2939 118.945C51.3688 118.913 51.4502 118.896 51.5381 118.896H51.9092C52.1631 118.896 52.4056 118.885 52.6367 118.862C52.8711 118.84 53.0778 118.792 53.2568 118.721C53.4359 118.646 53.5807 118.542 53.6914 118.408C53.8021 118.271 53.8623 118.092 53.8721 117.871C53.8753 117.783 53.8721 117.697 53.8623 117.612C53.8525 117.528 53.8363 117.438 53.8135 117.344C53.7939 117.246 53.7679 117.14 53.7354 117.026C53.7028 116.912 53.6654 116.781 53.623 116.631L54.8193 116.294C54.8617 116.45 54.8958 116.593 54.9219 116.724C54.9479 116.851 54.9691 116.974 54.9854 117.095C55.0016 117.212 55.0146 117.332 55.0244 117.456C55.0374 117.58 55.0505 117.716 55.0635 117.866C55.0732 117.98 55.0879 118.097 55.1074 118.218C55.127 118.338 55.1595 118.449 55.2051 118.55C55.2539 118.651 55.319 118.734 55.4004 118.799C55.485 118.864 55.5957 118.896 55.7324 118.896C55.8203 118.896 55.9017 118.913 55.9766 118.945C56.0547 118.978 56.1214 119.022 56.1768 119.077C56.2354 119.132 56.2809 119.199 56.3135 119.277C56.346 119.352 56.3623 119.434 56.3623 119.521C56.3623 119.609 56.3444 119.692 56.3086 119.771C56.276 119.845 56.2305 119.91 56.1719 119.966C56.1165 120.021 56.0498 120.065 55.9717 120.098C55.8968 120.13 55.8187 120.146 55.7373 120.146C55.415 120.146 55.1449 120.094 54.9268 119.99C54.7087 119.886 54.5247 119.751 54.375 119.585C54.2383 119.689 54.0755 119.777 53.8867 119.849C53.6979 119.92 53.4945 119.977 53.2764 120.02C53.0615 120.065 52.8369 120.098 52.6025 120.117C52.3682 120.137 52.137 120.146 51.9092 120.146H51.5381C51.4502 120.146 51.3688 120.13 51.2939 120.098C51.2158 120.065 51.1491 120.021 51.0938 119.966C51.0384 119.91 50.9945 119.845 50.9619 119.771C50.9294 119.692 50.9131 119.609 50.9131 119.521ZM51.5918 121.519L52.4316 120.684L53.2617 121.514L52.4219 122.354L51.5918 121.519ZM53.4375 121.514L54.2773 120.674L55.1074 121.509L54.2676 122.344L53.4375 121.514ZM54.1162 122.92L53.3496 123.687L52.5879 122.925L53.3545 122.158L54.1162 122.92ZM55.0977 119.521C55.0977 119.437 55.1156 119.359 55.1514 119.287C55.1839 119.212 55.2311 119.147 55.293 119.092C55.3548 119.036 55.4264 118.993 55.5078 118.96C55.5892 118.924 55.6771 118.903 55.7715 118.896C55.9635 118.896 56.141 118.864 56.3037 118.799C56.4665 118.73 56.6178 118.61 56.7578 118.438C56.901 118.262 57.0329 118.022 57.1533 117.72C57.2738 117.417 57.3877 117.03 57.4951 116.558L58.6914 116.895C58.6523 117.028 58.6133 117.15 58.5742 117.261C58.5384 117.371 58.5059 117.48 58.4766 117.588C58.4473 117.695 58.4229 117.808 58.4033 117.925C58.387 118.039 58.3789 118.169 58.3789 118.315C58.3789 118.39 58.3854 118.464 58.3984 118.535C58.4115 118.607 58.4326 118.67 58.4619 118.726C58.4912 118.781 58.5286 118.825 58.5742 118.857C58.623 118.89 58.68 118.905 58.7451 118.901C58.8656 118.898 58.9795 118.856 59.0869 118.774C59.1943 118.69 59.2936 118.581 59.3848 118.447C59.4792 118.314 59.5638 118.162 59.6387 117.993C59.7168 117.821 59.7852 117.648 59.8438 117.476C59.9056 117.3 59.9577 117.129 60 116.963C60.0423 116.797 60.0749 116.65 60.0977 116.523L61.25 116.758C61.2077 116.953 61.1735 117.134 61.1475 117.3C61.1214 117.463 61.1051 117.627 61.0986 117.793C61.0921 117.917 61.0954 118.044 61.1084 118.174C61.1214 118.304 61.1491 118.421 61.1914 118.525C61.2337 118.63 61.2923 118.716 61.3672 118.784C61.4453 118.849 61.5462 118.882 61.6699 118.882C61.8099 118.882 61.9222 118.828 62.0068 118.721C62.0947 118.61 62.1615 118.47 62.207 118.301C62.2526 118.132 62.2819 117.944 62.2949 117.739C62.3112 117.531 62.3193 117.329 62.3193 117.134C62.3193 117.072 62.3177 117.023 62.3145 116.987C62.3145 116.948 62.3145 116.912 62.3145 116.88C62.3145 116.847 62.3128 116.812 62.3096 116.772C62.3096 116.73 62.3096 116.673 62.3096 116.602L63.5449 116.504C63.5547 116.611 63.5645 116.717 63.5742 116.821C63.584 116.922 63.5938 117.028 63.6035 117.139C63.6133 117.246 63.6247 117.362 63.6377 117.485C63.654 117.606 63.6719 117.738 63.6914 117.881C63.7142 118.05 63.763 118.198 63.8379 118.325C63.9128 118.452 64.0007 118.558 64.1016 118.643C64.2057 118.727 64.3148 118.791 64.4287 118.833C64.5426 118.875 64.6501 118.896 64.751 118.896H64.8096C64.9072 118.896 64.9967 118.913 65.0781 118.945C65.1595 118.978 65.2295 119.022 65.2881 119.077C65.3467 119.132 65.3923 119.199 65.4248 119.277C65.4574 119.352 65.4736 119.434 65.4736 119.521C65.4736 119.609 65.4574 119.691 65.4248 119.766C65.3923 119.84 65.3451 119.907 65.2832 119.966C65.2214 120.021 65.1449 120.065 65.0537 120.098C64.9658 120.13 64.8649 120.146 64.751 120.146C64.5915 120.146 64.4336 120.13 64.2773 120.098C64.1243 120.065 63.9779 120.015 63.8379 119.946C63.6979 119.878 63.5661 119.792 63.4424 119.688C63.3219 119.58 63.2161 119.453 63.125 119.307C63.0924 119.362 63.0583 119.412 63.0225 119.458C62.9867 119.504 62.9492 119.548 62.9102 119.59C62.7507 119.766 62.5651 119.902 62.3535 120C62.1419 120.098 61.9141 120.146 61.6699 120.146C61.3639 120.146 61.0856 120.073 60.835 119.927C60.5876 119.78 60.3906 119.585 60.2441 119.341C60.1497 119.461 60.0472 119.572 59.9365 119.673C59.8291 119.771 59.7119 119.857 59.585 119.932C59.4613 120.003 59.3294 120.059 59.1895 120.098C59.0495 120.14 58.903 120.161 58.75 120.161C58.6035 120.161 58.4619 120.142 58.3252 120.103C58.1885 120.067 58.0615 120.013 57.9443 119.941C57.8271 119.87 57.7214 119.784 57.627 119.683C57.5326 119.578 57.4544 119.463 57.3926 119.336C57.2298 119.622 57.0182 119.829 56.7578 119.956C56.5007 120.083 56.1735 120.146 55.7764 120.146C55.6755 120.146 55.5843 120.13 55.5029 120.098C55.4183 120.065 55.3467 120.021 55.2881 119.966C55.2262 119.907 55.179 119.84 55.1465 119.766C55.1139 119.691 55.0977 119.609 55.0977 119.521ZM64.0869 119.526C64.0869 119.438 64.1032 119.355 64.1357 119.277C64.1683 119.199 64.2139 119.132 64.2725 119.077C64.3311 119.022 64.4027 118.978 64.4873 118.945C64.5687 118.913 64.6598 118.896 64.7607 118.896H65.0342H65.2734C65.459 118.896 65.6527 118.895 65.8545 118.892C66.0563 118.885 66.2484 118.867 66.4307 118.838C66.6162 118.809 66.7822 118.761 66.9287 118.696C67.0785 118.631 67.1924 118.538 67.2705 118.418V118.423C67.3844 118.25 67.4414 118.052 67.4414 117.827C67.4414 117.759 67.4349 117.687 67.4219 117.612C67.4121 117.537 67.3975 117.459 67.3779 117.378V117.383C67.3421 117.256 67.2607 117.091 67.1338 116.89C67.0068 116.688 66.8473 116.471 66.6553 116.24C66.4665 116.006 66.25 115.767 66.0059 115.522C65.7617 115.275 65.5046 115.042 65.2344 114.824L65.3662 113.657L69.3457 111.89L69.8389 113.052L66.5283 114.434C66.6748 114.557 66.8262 114.694 66.9824 114.844C67.1387 114.99 67.2917 115.146 67.4414 115.312C67.666 115.563 67.8564 115.807 68.0127 116.045C68.1689 116.283 68.2943 116.51 68.3887 116.729C68.4863 116.947 68.5563 117.155 68.5986 117.354C68.6442 117.549 68.667 117.733 68.667 117.905C68.667 118.14 68.6361 118.354 68.5742 118.55C68.5156 118.745 68.444 118.921 68.3594 119.077C68.0436 119.637 67.5195 119.984 66.7871 120.117V120.112C66.7122 120.129 66.6374 120.138 66.5625 120.142C66.4876 120.148 66.4128 120.151 66.3379 120.151L64.7607 120.146C64.6631 120.146 64.5736 120.13 64.4922 120.098C64.4076 120.065 64.3359 120.021 64.2773 119.966C64.2155 119.91 64.1683 119.845 64.1357 119.771C64.1032 119.696 64.0869 119.614 64.0869 119.526ZM71.1035 120.137C71.1198 119.87 71.1344 119.6 71.1475 119.326C71.1605 119.053 71.1719 118.784 71.1816 118.521C71.1914 118.257 71.1979 118 71.2012 117.749C71.2077 117.498 71.2109 117.262 71.2109 117.041C71.2109 116.582 71.2061 116.174 71.1963 115.815C71.1865 115.454 71.1719 115.133 71.1523 114.854C71.1361 114.57 71.1165 114.323 71.0938 114.111C71.0742 113.896 71.0531 113.708 71.0303 113.545C71.0075 113.379 70.9863 113.234 70.9668 113.11C70.9473 112.987 70.9294 112.873 70.9131 112.769L72.168 112.344C72.1745 112.363 72.1794 112.384 72.1826 112.407C72.1891 112.427 72.1956 112.458 72.2021 112.5C72.2119 112.542 72.2201 112.601 72.2266 112.676C72.2363 112.751 72.2477 112.853 72.2607 112.983C72.277 113.11 72.2933 113.271 72.3096 113.467C72.3291 113.659 72.3519 113.895 72.3779 114.175C72.3942 114.445 72.4072 114.696 72.417 114.927C72.43 115.158 72.4398 115.386 72.4463 115.61C72.4528 115.832 72.4577 116.06 72.4609 116.294C72.4642 116.525 72.4658 116.777 72.4658 117.051C72.4658 117.497 72.4609 117.954 72.4512 118.423C72.4414 118.892 72.4186 119.399 72.3828 119.946L71.1035 120.137ZM78.7451 118.457C78.6507 118.59 78.5677 118.752 78.4961 118.94C78.431 119.106 78.3724 119.31 78.3203 119.551C78.2682 119.788 78.2422 120.073 78.2422 120.405C78.2422 120.604 78.2715 120.783 78.3301 120.942C78.3887 121.102 78.4668 121.242 78.5645 121.362C78.6621 121.486 78.7728 121.592 78.8965 121.68C79.0234 121.771 79.152 121.846 79.2822 121.904C79.4157 121.963 79.5475 122.007 79.6777 122.036C79.8079 122.069 79.9251 122.088 80.0293 122.095C80.0553 122.098 80.0781 122.1 80.0977 122.1C80.1204 122.1 80.1432 122.1 80.166 122.1C80.3158 122.1 80.472 122.082 80.6348 122.046C80.8008 122.013 80.9619 121.961 81.1182 121.89C81.2777 121.821 81.429 121.732 81.5723 121.621C81.7155 121.514 81.8408 121.383 81.9482 121.23C82.0589 121.081 82.1452 120.907 82.207 120.708C82.2721 120.513 82.3047 120.293 82.3047 120.049C82.3047 119.792 82.2998 119.489 82.29 119.141C82.2803 118.792 82.2673 118.423 82.251 118.032C82.238 117.638 82.2217 117.233 82.2021 116.816C82.1826 116.4 82.1631 115.993 82.1436 115.596C82.1208 115.13 82.0964 114.657 82.0703 114.175C82.0443 113.69 82.0166 113.193 81.9873 112.686L83.2617 112.446L83.3398 114.355L83.4668 118.096C83.4766 118.161 83.4961 118.239 83.5254 118.33C83.5547 118.421 83.6003 118.509 83.6621 118.594C83.7272 118.675 83.8102 118.747 83.9111 118.809C84.0153 118.867 84.1455 118.896 84.3018 118.896C84.3896 118.896 84.471 118.914 84.5459 118.95C84.624 118.983 84.6908 119.028 84.7461 119.087C84.8047 119.142 84.8503 119.209 84.8828 119.287C84.9154 119.362 84.9316 119.442 84.9316 119.526C84.9316 119.614 84.9154 119.696 84.8828 119.771C84.8503 119.845 84.8047 119.912 84.7461 119.971C84.6908 120.026 84.624 120.068 84.5459 120.098C84.471 120.13 84.3896 120.146 84.3018 120.146C84.126 120.146 83.9746 120.135 83.8477 120.112C83.7207 120.09 83.6051 120.057 83.501 120.015V120.068C83.501 120.479 83.4505 120.845 83.3496 121.167C83.252 121.489 83.1185 121.771 82.9492 122.012C82.7799 122.256 82.583 122.463 82.3584 122.632C82.137 122.801 81.9043 122.939 81.6602 123.047C81.416 123.154 81.167 123.231 80.9131 123.276C80.6624 123.325 80.4232 123.35 80.1953 123.35C80.1693 123.35 80.1383 123.35 80.1025 123.35C80.0667 123.35 80.0358 123.348 80.0098 123.345C79.8047 123.328 79.5898 123.291 79.3652 123.232C79.1439 123.177 78.9242 123.097 78.7061 122.993C78.4912 122.889 78.2861 122.759 78.0908 122.603C77.8988 122.45 77.7295 122.266 77.583 122.051C77.4365 121.839 77.321 121.597 77.2363 121.323C77.1517 121.05 77.111 120.742 77.1143 120.4C77.1175 119.967 77.1484 119.598 77.207 119.292C77.2689 118.986 77.3356 118.735 77.4072 118.54C77.4495 118.426 77.4935 118.322 77.5391 118.228C77.5879 118.13 77.6383 118.044 77.6904 117.969L78.7451 118.457ZM85.2295 122.51L84.3896 121.675L85.2197 120.84L86.0596 121.68L85.2295 122.51ZM87.0752 122.52L86.2354 121.68L87.0654 120.85L87.9053 121.685L87.0752 122.52ZM83.5986 119.521C83.5986 119.434 83.6149 119.352 83.6475 119.277C83.68 119.199 83.7256 119.132 83.7842 119.077C83.8395 119.022 83.9046 118.978 83.9795 118.945C84.0544 118.913 84.1357 118.896 84.2236 118.896H84.7656H85C85.1595 118.896 85.3288 118.892 85.5078 118.882C85.6868 118.869 85.8577 118.846 86.0205 118.813C86.1865 118.778 86.3363 118.73 86.4697 118.672C86.6032 118.61 86.7025 118.532 86.7676 118.438C86.8197 118.363 86.8457 118.267 86.8457 118.149C86.8457 118.029 86.8278 117.897 86.792 117.754C86.7594 117.611 86.7139 117.461 86.6553 117.305C86.5999 117.148 86.5397 116.995 86.4746 116.846C86.4095 116.696 86.3444 116.556 86.2793 116.426C86.2174 116.296 86.1654 116.183 86.123 116.089L87.2607 115.527C87.3486 115.684 87.4349 115.872 87.5195 116.094C87.6074 116.312 87.6839 116.538 87.749 116.772C87.8141 117.007 87.8662 117.238 87.9053 117.466C87.9476 117.694 87.9688 117.896 87.9688 118.071C87.9688 118.387 87.915 118.669 87.8076 118.916C87.6839 119.202 87.5098 119.438 87.2852 119.624C87.0638 119.806 86.7969 119.943 86.4844 120.034C86.39 120.06 86.2712 120.08 86.1279 120.093C85.988 120.109 85.8447 120.12 85.6982 120.127C85.5518 120.137 85.4118 120.142 85.2783 120.142C85.1481 120.145 85.0472 120.146 84.9756 120.146H84.2676H84.2236C84.1357 120.146 84.0544 120.13 83.9795 120.098C83.9046 120.065 83.8395 120.021 83.7842 119.966C83.7256 119.91 83.68 119.845 83.6475 119.771C83.6149 119.692 83.5986 119.609 83.5986 119.521ZM88.9551 122.344C89.4336 122.249 89.8649 122.122 90.249 121.963C90.6364 121.807 90.9717 121.631 91.2549 121.436C91.5381 121.24 91.7676 121.032 91.9434 120.811C92.1224 120.589 92.2412 120.368 92.2998 120.146C92.2217 120.146 92.137 120.146 92.0459 120.146C91.958 120.146 91.8701 120.145 91.7822 120.142C91.6943 120.142 91.6097 120.14 91.5283 120.137C91.4469 120.133 91.3753 120.129 91.3135 120.122C90.9489 120.096 90.6217 120.02 90.332 119.893C90.0456 119.766 89.8145 119.593 89.6387 119.375C89.515 119.219 89.4255 119.046 89.3701 118.857C89.318 118.665 89.292 118.462 89.292 118.247C89.292 118.081 89.3066 117.913 89.3359 117.744C89.3685 117.575 89.4124 117.41 89.4678 117.251C89.5264 117.088 89.5931 116.935 89.668 116.792C89.7428 116.649 89.8242 116.519 89.9121 116.401C90.0879 116.177 90.2832 116.007 90.498 115.894C90.7129 115.776 90.9375 115.718 91.1719 115.718C91.6764 115.718 92.137 115.942 92.5537 116.392C92.6904 116.545 92.8141 116.715 92.9248 116.904C93.0355 117.093 93.1315 117.295 93.2129 117.51C93.2943 117.725 93.3594 117.949 93.4082 118.184C93.4603 118.418 93.4928 118.656 93.5059 118.896H93.7354C93.8232 118.896 93.9046 118.913 93.9795 118.945C94.0576 118.978 94.1243 119.022 94.1797 119.077C94.2383 119.132 94.2839 119.199 94.3164 119.277C94.3522 119.355 94.3701 119.438 94.3701 119.526C94.3701 119.611 94.3522 119.691 94.3164 119.766C94.2839 119.84 94.2383 119.907 94.1797 119.966C94.1243 120.021 94.0576 120.065 93.9795 120.098C93.9046 120.13 93.8232 120.146 93.7354 120.146H93.4082C93.2975 120.625 93.1104 121.058 92.8467 121.445C92.5863 121.833 92.2721 122.17 91.9043 122.456C91.5365 122.746 91.1247 122.983 90.6689 123.169C90.2165 123.354 89.7428 123.486 89.248 123.564L88.9551 122.344ZM91.1719 116.973C91.0872 116.973 90.9961 117.008 90.8984 117.08C90.8008 117.152 90.7113 117.244 90.6299 117.358C90.5485 117.469 90.4801 117.593 90.4248 117.729C90.3727 117.866 90.3467 118 90.3467 118.13C90.3467 118.267 90.3776 118.381 90.4395 118.472C90.5046 118.56 90.5859 118.631 90.6836 118.687C90.7845 118.742 90.8968 118.784 91.0205 118.813C91.1475 118.84 91.2728 118.859 91.3965 118.872C91.4648 118.875 91.5397 118.879 91.6211 118.882C91.7025 118.885 91.7855 118.888 91.8701 118.892C91.958 118.892 92.0443 118.892 92.1289 118.892C92.2135 118.888 92.2933 118.883 92.3682 118.877C92.3519 118.695 92.3177 118.522 92.2656 118.359C92.2135 118.197 92.1517 118.047 92.0801 117.91C92.0085 117.77 91.932 117.645 91.8506 117.534C91.7692 117.42 91.6927 117.321 91.6211 117.236V117.241C91.5658 117.183 91.4974 117.124 91.416 117.065C91.3379 117.004 91.2565 116.973 91.1719 116.973ZM93.1104 119.526C93.1104 119.442 93.1266 119.362 93.1592 119.287C93.1917 119.209 93.2373 119.142 93.2959 119.087C93.3512 119.028 93.418 118.983 93.4961 118.95C93.571 118.914 93.6523 118.896 93.7402 118.896H94.6338C95.0342 118.896 95.4378 118.857 95.8447 118.779C96.2516 118.698 96.652 118.594 97.0459 118.467C97.4398 118.337 97.8223 118.192 98.1934 118.032C98.5645 117.869 98.9144 117.707 99.2432 117.544C99.1097 117.528 98.9697 117.495 98.8232 117.446C98.68 117.394 98.5319 117.336 98.3789 117.271C98.2259 117.202 98.0697 117.131 97.9102 117.056C97.7507 116.981 97.5911 116.914 97.4316 116.855C97.2721 116.794 97.111 116.743 96.9482 116.704C96.7887 116.662 96.6325 116.641 96.4795 116.641C96.359 116.641 96.2435 116.663 96.1328 116.709C96.0254 116.751 95.9229 116.807 95.8252 116.875C95.7308 116.94 95.6445 117.012 95.5664 117.09C95.4915 117.168 95.4264 117.241 95.3711 117.31C95.319 117.375 95.2767 117.43 95.2441 117.476C95.2148 117.521 95.2002 117.544 95.2002 117.544L94.2236 117.012C94.3376 116.797 94.4808 116.592 94.6533 116.396C94.8291 116.198 95.0195 116.024 95.2246 115.874C95.4297 115.721 95.6396 115.601 95.8545 115.513C96.0726 115.422 96.2809 115.376 96.4795 115.376C96.6455 115.376 96.8115 115.396 96.9775 115.435C97.1468 115.47 97.3161 115.519 97.4854 115.581C97.6579 115.643 97.8304 115.713 98.0029 115.791C98.1787 115.869 98.3577 115.949 98.54 116.03C98.7288 116.121 98.9355 116.213 99.1602 116.304C99.3848 116.392 99.6159 116.471 99.8535 116.543C100.091 116.611 100.329 116.668 100.566 116.714C100.807 116.756 101.037 116.777 101.255 116.777L101.045 117.969C100.921 118.021 100.802 118.078 100.688 118.14C100.575 118.198 100.457 118.255 100.337 118.311C100.402 118.447 100.5 118.555 100.63 118.633C100.763 118.711 100.905 118.77 101.055 118.809C101.204 118.848 101.348 118.872 101.484 118.882C101.624 118.892 101.733 118.896 101.812 118.896H101.88C101.968 118.896 102.049 118.914 102.124 118.95C102.202 118.983 102.269 119.028 102.324 119.087C102.383 119.142 102.428 119.209 102.461 119.287C102.493 119.362 102.51 119.442 102.51 119.526C102.51 119.614 102.493 119.696 102.461 119.771C102.428 119.845 102.383 119.912 102.324 119.971C102.269 120.026 102.202 120.068 102.124 120.098C102.049 120.13 101.968 120.146 101.88 120.146H101.812C101.493 120.146 101.196 120.117 100.923 120.059C100.649 120.003 100.4 119.922 100.176 119.814C99.9544 119.704 99.7607 119.57 99.5947 119.414C99.432 119.255 99.3018 119.074 99.2041 118.872C98.8753 119.035 98.5352 119.193 98.1836 119.346C97.832 119.499 97.4674 119.635 97.0898 119.756C96.7122 119.876 96.3184 119.972 95.9082 120.044C95.5013 120.116 95.0765 120.151 94.6338 120.151L93.7402 120.146C93.6523 120.146 93.571 120.13 93.4961 120.098C93.418 120.068 93.3512 120.026 93.2959 119.971C93.2373 119.912 93.1917 119.845 93.1592 119.771C93.1266 119.696 93.1104 119.614 93.1104 119.526ZM103.042 114.746L102.202 113.911L103.032 113.076L103.872 113.916L103.042 114.746ZM104.888 114.756L104.048 113.916L104.878 113.086L105.718 113.921L104.888 114.756ZM101.084 119.521C101.084 119.434 101.1 119.352 101.133 119.277C101.165 119.199 101.211 119.132 101.27 119.077C101.325 119.022 101.39 118.978 101.465 118.945C101.54 118.913 101.621 118.896 101.709 118.896H102.251H102.485C102.645 118.896 102.814 118.892 102.993 118.882C103.172 118.869 103.343 118.846 103.506 118.813C103.672 118.778 103.822 118.73 103.955 118.672C104.089 118.61 104.188 118.532 104.253 118.438C104.305 118.363 104.331 118.267 104.331 118.149C104.331 118.029 104.313 117.897 104.277 117.754C104.245 117.611 104.199 117.461 104.141 117.305C104.085 117.148 104.025 116.995 103.96 116.846C103.895 116.696 103.83 116.556 103.765 116.426C103.703 116.296 103.651 116.183 103.608 116.089L104.746 115.527C104.834 115.684 104.92 115.872 105.005 116.094C105.093 116.312 105.169 116.538 105.234 116.772C105.299 117.007 105.352 117.238 105.391 117.466C105.433 117.694 105.454 117.896 105.454 118.071C105.454 118.387 105.4 118.669 105.293 118.916C105.169 119.202 104.995 119.438 104.771 119.624C104.549 119.806 104.282 119.943 103.97 120.034C103.875 120.06 103.757 120.08 103.613 120.093C103.473 120.109 103.33 120.12 103.184 120.127C103.037 120.137 102.897 120.142 102.764 120.142C102.633 120.145 102.533 120.146 102.461 120.146H101.753H101.709C101.621 120.146 101.54 120.13 101.465 120.098C101.39 120.065 101.325 120.021 101.27 119.966C101.211 119.91 101.165 119.845 101.133 119.771C101.1 119.692 101.084 119.609 101.084 119.521Z" fill="#AA0002"/>
<g clip-path="url(#clip0_90_138)">
<path d="M86.0483 30.4383C92.5104 34.9732 94.3366 43.0936 97.0248 47.04C103.726 56.8726 111.675 62.2282 107.439 74.0844C100.165 94.4392 77.089 95.3672 59.1747 90.654C49.6356 88.1448 39.7513 83.9965 33.1893 76.4217C30.4793 73.2939 28.5489 69.0618 28.0365 64.7567C27.0963 56.8446 32.5118 50.2366 37.1304 43.8627C43.1952 35.491 52.0481 29.4458 62.1735 27.0505C70.0232 25.1944 79.3928 25.7701 86.0439 30.4404L86.0483 30.4383Z" fill="#F0F0EF"/>
<path d="M105.322 56.768C98.0345 44.2759 90.745 31.7837 83.4556 19.2938C82.6109 17.8458 81.8813 17.6611 80.4069 18.5054C74.6939 21.7729 68.9787 25.0404 63.2635 28.3057C53.2597 34.0201 43.256 39.7302 33.2544 45.4445C31.8408 46.2523 31.6475 46.9913 32.4705 48.4005C33.2414 49.7217 34.0144 51.0407 34.7809 52.3641C35.0849 52.8861 35.378 53.4146 35.7276 54.0311C31.9624 54.0311 28.3361 54.0569 24.7098 54.0161C23.7349 54.0053 23.0226 54.2782 22.5862 55.1546V56.1192C23.0183 57 23.7305 57.2685 24.7055 57.2599C28.7422 57.2191 32.7788 57.2599 36.8134 57.2234C37.4561 57.217 37.7688 57.4382 38.0619 57.9603C38.937 59.5307 39.8664 61.0688 40.7697 62.6241C40.8978 62.8454 41.0042 63.0774 41.1736 63.4083H40.166C38.4332 63.4083 36.7004 63.3889 34.9655 63.4169C33.6974 63.4362 32.9156 64.3599 33.1806 65.4491C33.3716 66.2225 34.0752 66.6865 35.1327 66.6908C37.5169 66.6994 39.9011 66.7209 42.2832 66.6758C42.9476 66.6629 43.2799 66.8992 43.5969 67.4491C47.2014 73.6705 50.8321 79.879 54.4605 86.0853C55.1271 87.2281 55.961 87.4602 57.101 86.8135C59.7045 85.3355 62.3059 83.8532 64.8986 82.3559C65.8475 81.8059 66.1363 80.8586 65.6542 80.0465C65.1635 79.2216 64.2167 79.0175 63.2483 79.5653C61.2983 80.6652 59.3593 81.7845 57.4137 82.8951C57.1661 83.0369 56.9142 83.1722 56.6341 83.3248C53.3965 77.7737 50.198 72.2913 46.9322 66.6929H47.9788C51.2012 66.6929 54.4258 66.6929 57.6482 66.6908C57.9196 66.6908 58.1932 66.6994 58.4581 66.6564C59.3506 66.5103 59.9629 65.8186 59.9412 65.0109C59.9195 64.1924 59.2898 63.5436 58.3865 63.4297C58.1194 63.3975 57.8458 63.4083 57.5765 63.4083C53.6745 63.4083 49.7746 63.3911 45.8747 63.4254C45.2059 63.4319 44.8563 63.2042 44.548 62.6499C43.662 61.0559 42.7196 59.492 41.8055 57.913C41.6925 57.7218 41.61 57.5113 41.4819 57.2428C42.0248 57.2428 42.4569 57.2514 42.889 57.2406C43.8879 57.2127 44.5415 56.5789 44.5458 55.6466C44.548 54.7121 43.8965 54.059 42.9042 54.0376C42.0096 54.0182 41.1149 54.001 40.2225 54.044C39.7252 54.0676 39.4429 53.9108 39.1997 53.479C38.3464 51.958 37.4496 50.4607 36.5723 48.9548C36.3356 48.5466 36.1076 48.1363 35.8601 47.698C41.2539 44.6196 46.563 41.5905 51.8961 38.5465C52.0741 38.8408 52.2131 39.0685 52.3477 39.2984C54.5126 43.0062 56.6732 46.7141 58.8446 50.4177C59.7023 51.8764 61.0464 51.9151 61.9736 50.5166C62.8357 49.219 63.7151 47.9322 64.5229 46.6024C64.8616 46.0439 65.272 45.8484 65.8974 45.8355C67.3848 45.799 68.8723 45.7088 70.3619 45.6486C72.2315 45.5756 72.9024 44.3876 71.9644 42.7785C69.8299 39.1158 67.6888 35.4573 65.5522 31.7945C65.4088 31.5453 65.2786 31.2875 65.12 30.991C70.4791 27.9298 75.7882 24.8986 81.1517 21.833C88.0959 33.7322 95.0097 45.582 101.937 57.4511C101.685 57.5951 101.524 57.6896 101.361 57.7841C93.8892 62.0527 86.4174 66.3234 78.9455 70.5942C77.9857 71.142 77.0173 71.6769 76.0727 72.2526C75.4669 72.62 75.1737 73.1936 75.3105 73.8961C75.4517 74.6179 75.9294 75.1485 76.6677 75.1936C77.1389 75.2237 77.6796 75.0346 78.103 74.7962C86.9211 69.7843 95.7263 64.7552 104.534 59.7261C105.954 58.9141 106.147 58.1815 105.322 56.768ZM68.0102 42.4928C66.9875 42.5444 66.0863 42.6496 65.1917 42.6196C63.7846 42.5723 62.7532 43.0277 62.0952 44.3317C61.6762 45.161 61.0855 45.9064 60.5101 46.785C58.5775 43.4724 56.6884 40.2393 54.7471 36.9159C57.2617 35.4809 59.7154 34.0781 62.2516 32.6302C64.1494 35.8805 66.0364 39.1115 68.0102 42.4928Z" fill="#2F257E"/>
<path d="M68.0103 42.4925C66.9875 42.5441 66.0864 42.6494 65.1917 42.6193C63.7847 42.572 62.7532 43.0275 62.0953 44.3314C61.6762 45.1607 61.0856 45.9061 60.5102 46.7848C58.5776 43.4721 56.6884 40.239 54.7472 36.9157C57.2617 35.4806 59.7154 34.0778 62.2516 32.6299C64.1495 35.8802 66.0364 39.1112 68.0103 42.4925Z" fill="#AA0002"/>
<path d="M91.4246 49.8933C91.2444 50.1253 90.999 50.6925 90.5669 50.9502C88.0459 52.454 85.4858 53.8998 82.9235 55.3327C82.068 55.8118 81.1277 55.5389 80.6717 54.7656C80.2136 53.9879 80.4416 53.047 81.2971 52.5486C83.8355 51.0706 86.3826 49.6033 88.9514 48.1768C90.1153 47.5302 91.4659 48.3337 91.4246 49.889V49.8933Z" fill="#2F257E"/>
<path d="M85.8723 61.861C85.032 61.8588 84.3762 61.354 84.183 60.6644C83.9723 59.9168 84.2199 59.2551 84.956 58.8169C86.2979 58.0177 87.6616 57.2508 89.0187 56.4753C90.1652 55.8201 91.3074 55.1562 92.4626 54.5161C93.4267 53.9833 94.3756 54.1917 94.8599 55.0145C95.3463 55.8394 95.064 56.761 94.0977 57.3217C91.6244 58.7524 89.1425 60.1638 86.6541 61.5688C86.3783 61.7235 86.0547 61.7944 85.8702 61.861H85.8723Z" fill="#2F257E"/>
<path d="M33.0112 77.3889C32.0123 77.3889 31.0113 77.4104 30.0124 77.3824C28.9311 77.3545 28.2796 76.7337 28.2753 75.7863C28.2709 74.8217 28.9745 74.1579 30.0711 74.1493C32.0688 74.1343 34.0686 74.1321 36.0685 74.1493C37.1456 74.1579 37.8708 74.8561 37.8556 75.8056C37.8404 76.7423 37.1738 77.3567 36.0902 77.3824C35.0653 77.4061 34.0382 77.3867 33.0112 77.3867V77.3889Z" fill="#2F257E"/>
<path d="M33.161 38.5738C32.3511 38.5738 31.5411 38.5867 30.7333 38.5716C29.7128 38.5523 28.9723 37.8842 28.9463 36.9862C28.918 36.0732 29.6107 35.3643 30.6508 35.3449C32.3511 35.3127 34.0513 35.3127 35.7493 35.3492C36.7699 35.3707 37.3931 36.0259 37.3909 36.9475C37.3909 37.8928 36.7134 38.5459 35.6712 38.5716C34.8352 38.591 33.9992 38.5759 33.161 38.5759V38.5738Z" fill="#2F257E"/>
<path d="M72.2011 77.2211C72.2098 78.1363 71.4954 78.8473 70.5747 78.8409C69.667 78.8366 68.9201 78.0912 68.9374 77.2104C68.9548 76.3769 69.7039 75.6314 70.5465 75.6099C71.4346 75.5863 72.1924 76.3253 72.2011 77.2211Z" fill="#2F257E"/>
</g>
<defs>
<clipPath id="clip0_90_138">
<rect width="86.0427" height="75" fill="white" transform="translate(22.5862 18)"/>
</clipPath>
</defs>
</svg>
