<svg width="132" height="138" viewBox="0 0 132 138" fill="none" xmlns="http://www.w3.org/2000/svg">
<path d="M34.2451 117.085C34.2646 117.329 34.2549 117.57 34.2158 117.808C34.1768 118.042 34.1165 118.267 34.0352 118.481C33.9538 118.693 33.8529 118.89 33.7324 119.072C33.6152 119.255 33.4867 119.412 33.3467 119.546C33.1123 119.771 32.8454 119.953 32.5459 120.093C32.2497 120.233 31.9355 120.337 31.6035 120.405C31.2747 120.474 30.9362 120.509 30.5879 120.513C30.2396 120.519 29.8978 120.498 29.5625 120.449L29.7773 119.204C29.9466 119.224 30.0947 119.24 30.2217 119.253C30.3519 119.266 30.4723 119.276 30.583 119.282C30.6937 119.285 30.8011 119.284 30.9053 119.277C31.0127 119.271 31.1283 119.258 31.252 119.238C31.2292 118.958 31.1755 118.672 31.0908 118.379C31.0094 118.086 30.9085 117.796 30.7881 117.51C30.6676 117.223 30.5326 116.943 30.3828 116.67C30.2363 116.396 30.0866 116.138 29.9336 115.894C29.7839 115.649 29.6374 115.425 29.4941 115.22C29.3542 115.015 29.2272 114.839 29.1133 114.692C29.0026 114.543 28.9115 114.425 28.8398 114.341C28.7715 114.253 28.7357 114.207 28.7324 114.204L29.6504 113.267C30.054 113.8 30.4105 114.341 30.7197 114.888C31.029 115.431 31.2926 115.949 31.5107 116.44C31.7321 116.932 31.9095 117.378 32.043 117.778C32.1797 118.175 32.2773 118.494 32.3359 118.735C32.4499 118.683 32.5671 118.604 32.6875 118.496C32.8079 118.385 32.9137 118.254 33.0049 118.101C33.096 117.944 33.1628 117.77 33.2051 117.578C33.2507 117.383 33.2539 117.174 33.2148 116.953L32.4678 112.705L33.6787 112.412C33.6787 112.415 33.6885 112.484 33.708 112.617C33.7275 112.751 33.7536 112.931 33.7861 113.159C33.8187 113.387 33.8545 113.652 33.8936 113.955C33.9359 114.258 33.9782 114.582 34.0205 114.927C34.0628 115.272 34.1035 115.63 34.1426 116.001C34.1816 116.369 34.2158 116.73 34.2451 117.085ZM37.7607 120.146C37.3799 120.146 37.0544 120.099 36.7842 120.005C36.5173 119.914 36.2861 119.774 36.0908 119.585C35.9736 119.468 35.8825 119.342 35.8174 119.209C35.7555 119.076 35.71 118.944 35.6807 118.813C35.6514 118.683 35.6335 118.561 35.627 118.447C35.6237 118.33 35.6221 118.229 35.6221 118.145C35.6253 118.04 35.6286 117.869 35.6318 117.632C35.6383 117.391 35.6416 117.098 35.6416 116.753C35.6416 116.548 35.64 116.33 35.6367 116.099C35.6367 115.864 35.6351 115.627 35.6318 115.386C35.6286 115.145 35.6221 114.904 35.6123 114.663C35.6025 114.419 35.5911 114.185 35.5781 113.96C35.5651 113.735 35.5472 113.525 35.5244 113.33C35.5049 113.132 35.4805 112.956 35.4512 112.803L36.6768 112.437C36.7126 112.625 36.7435 112.853 36.7695 113.12C36.7956 113.387 36.8167 113.672 36.833 113.975C36.8525 114.274 36.8656 114.582 36.8721 114.897C36.8818 115.21 36.8867 115.508 36.8867 115.791C36.8867 115.964 36.8883 116.147 36.8916 116.343C36.8949 116.535 36.8965 116.704 36.8965 116.851C36.8965 116.974 36.8949 117.091 36.8916 117.202C36.8916 117.31 36.89 117.414 36.8867 117.515C36.8867 117.616 36.8851 117.715 36.8818 117.812C36.8818 117.91 36.8818 118.009 36.8818 118.11C36.8786 118.234 36.8818 118.351 36.8916 118.462C36.9014 118.569 36.9339 118.649 36.9893 118.701C37.1064 118.822 37.349 118.885 37.7168 118.892H37.7607C37.8454 118.892 37.9251 118.91 38 118.945C38.0781 118.978 38.1449 119.023 38.2002 119.082C38.2588 119.137 38.3044 119.204 38.3369 119.282C38.3727 119.357 38.3906 119.437 38.3906 119.521C38.3906 119.609 38.3727 119.692 38.3369 119.771C38.3044 119.845 38.2588 119.91 38.2002 119.966C38.1449 120.021 38.0781 120.065 38 120.098C37.9251 120.13 37.8454 120.146 37.7607 120.146ZM37.0234 119.526C37.0234 119.438 37.0397 119.355 37.0723 119.277C37.1048 119.199 37.1504 119.132 37.209 119.077C37.2676 119.022 37.3392 118.978 37.4238 118.945C37.5052 118.913 37.5964 118.896 37.6973 118.896H37.9707H38.21C38.3955 118.896 38.5892 118.895 38.791 118.892C38.9928 118.885 39.1849 118.867 39.3672 118.838C39.5527 118.809 39.7188 118.761 39.8652 118.696C40.015 118.631 40.1289 118.538 40.207 118.418V118.423C40.321 118.25 40.3779 118.052 40.3779 117.827C40.3779 117.759 40.3714 117.687 40.3584 117.612C40.3486 117.537 40.334 117.459 40.3145 117.378V117.383C40.2786 117.256 40.1973 117.091 40.0703 116.89C39.9434 116.688 39.7839 116.471 39.5918 116.24C39.403 116.006 39.1865 115.767 38.9424 115.522C38.6982 115.275 38.4411 115.042 38.1709 114.824L38.3027 113.657L42.2822 111.89L42.7754 113.052L39.4648 114.434C39.6113 114.557 39.7627 114.694 39.9189 114.844C40.0752 114.99 40.2282 115.146 40.3779 115.312C40.6025 115.563 40.793 115.807 40.9492 116.045C41.1055 116.283 41.2308 116.51 41.3252 116.729C41.4229 116.947 41.4928 117.155 41.5352 117.354C41.5807 117.549 41.6035 117.733 41.6035 117.905C41.6035 118.14 41.5726 118.354 41.5107 118.55C41.4521 118.745 41.3805 118.921 41.2959 119.077C40.9801 119.637 40.4561 119.984 39.7236 120.117V120.112C39.6488 120.129 39.5739 120.138 39.499 120.142C39.4242 120.148 39.3493 120.151 39.2744 120.151L37.6973 120.146C37.5996 120.146 37.5101 120.13 37.4287 120.098C37.3441 120.065 37.2725 120.021 37.2139 119.966C37.152 119.91 37.1048 119.845 37.0723 119.771C37.0397 119.696 37.0234 119.614 37.0234 119.526ZM57.4043 120.146C56.8672 120.146 56.4147 120.052 56.0469 119.863C55.679 119.671 55.3877 119.357 55.1729 118.921C54.2777 119.748 52.9382 120.161 51.1543 120.161C50.1354 120.155 49.2923 120.029 48.625 119.785C47.9609 119.538 47.471 119.159 47.1553 118.647C47.0316 118.439 46.9421 118.223 46.8867 117.998C46.8346 117.773 46.8086 117.554 46.8086 117.339C46.8086 117.082 46.8411 116.828 46.9062 116.577V116.582C46.9453 116.423 46.986 116.284 47.0283 116.167C47.0706 116.047 47.1097 115.946 47.1455 115.864C47.1813 115.783 47.2122 115.719 47.2383 115.674C47.2643 115.628 47.2822 115.597 47.292 115.581L48.2344 116.172C48.2018 116.23 48.1644 116.294 48.1221 116.362C48.0798 116.431 48.0391 116.51 48 116.602C47.9642 116.693 47.9333 116.8 47.9072 116.924C47.8812 117.048 47.8682 117.192 47.8682 117.358C47.8682 117.472 47.8893 117.59 47.9316 117.71C47.974 117.827 48.0277 117.938 48.0928 118.042C48.1839 118.195 48.3223 118.325 48.5078 118.433C48.6934 118.54 48.918 118.628 49.1816 118.696C49.4486 118.765 49.748 118.815 50.0801 118.848C50.4121 118.88 50.7702 118.896 51.1543 118.896C51.5026 118.896 51.833 118.883 52.1455 118.857C52.458 118.831 52.7477 118.791 53.0146 118.735C53.2848 118.677 53.529 118.604 53.7471 118.516C53.9652 118.424 54.1523 118.314 54.3086 118.184C54.4518 118.073 54.5674 117.944 54.6553 117.798C54.7432 117.651 54.8164 117.498 54.875 117.339C54.9336 117.176 54.9824 117.01 55.0215 116.841C55.0605 116.672 55.1029 116.509 55.1484 116.353L56.2715 116.655C56.2292 116.831 56.1836 117.007 56.1348 117.183C56.0892 117.355 56.068 117.534 56.0713 117.72V117.715C56.0811 117.897 56.112 118.062 56.1641 118.208C56.2161 118.351 56.2959 118.475 56.4033 118.579C56.514 118.68 56.654 118.758 56.8232 118.813C56.9925 118.869 57.1992 118.896 57.4434 118.896C57.5312 118.896 57.6126 118.913 57.6875 118.945C57.7656 118.978 57.8324 119.022 57.8877 119.077C57.9463 119.132 57.9919 119.199 58.0244 119.277C58.057 119.352 58.0732 119.434 58.0732 119.521C58.0732 119.609 58.057 119.692 58.0244 119.771C57.9919 119.845 57.9463 119.91 57.8877 119.966C57.8324 120.021 57.7656 120.065 57.6875 120.098C57.6126 120.13 57.5312 120.146 57.4434 120.146H57.4043ZM50.6221 116.021L49.7822 115.186L50.6123 114.351L51.4521 115.19L50.6221 116.021ZM52.4678 116.03L51.6279 115.19L52.458 114.36L53.2979 115.195L52.4678 116.03ZM56.9014 119.521C56.9014 119.434 56.9176 119.352 56.9502 119.277C56.9827 119.199 57.0283 119.132 57.0869 119.077C57.1423 119.022 57.2074 118.978 57.2822 118.945C57.3571 118.913 57.4385 118.896 57.5264 118.896H57.5703H57.7998C58.1286 118.896 58.3564 118.833 58.4834 118.706H58.4785C58.5501 118.631 58.6038 118.521 58.6396 118.374C58.6755 118.228 58.6917 118.037 58.6885 117.803C58.6885 117.588 58.6803 117.284 58.6641 116.89C58.651 116.496 58.6315 116.004 58.6055 115.415C58.5924 115.057 58.5745 114.723 58.5518 114.414C58.5322 114.102 58.5127 113.828 58.4932 113.594C58.4736 113.359 58.4557 113.169 58.4395 113.022C58.4264 112.873 58.4183 112.782 58.415 112.749L59.6699 112.48C59.6732 112.533 59.6829 112.645 59.6992 112.817C59.7155 112.99 59.7334 113.206 59.7529 113.467C59.7725 113.724 59.792 114.017 59.8115 114.346C59.8343 114.671 59.8538 115.013 59.8701 115.371L59.9043 116.348C59.9271 117.015 59.9417 117.497 59.9482 117.793V117.788C59.9515 117.918 59.9482 118.06 59.9385 118.213C59.9287 118.366 59.9043 118.522 59.8652 118.682C59.8262 118.841 59.7676 118.999 59.6895 119.155C59.6146 119.312 59.512 119.456 59.3818 119.59C59.0107 119.961 58.4834 120.146 57.7998 120.146H57.5703H57.5264C57.4385 120.146 57.3571 120.13 57.2822 120.098C57.2074 120.065 57.1423 120.021 57.0869 119.966C57.0283 119.907 56.9827 119.84 56.9502 119.766C56.9176 119.691 56.9014 119.609 56.9014 119.521ZM63.3857 120.146C63.0049 120.146 62.6794 120.099 62.4092 120.005C62.1423 119.914 61.9111 119.774 61.7158 119.585C61.5986 119.468 61.5075 119.342 61.4424 119.209C61.3805 119.076 61.335 118.944 61.3057 118.813C61.2764 118.683 61.2585 118.561 61.252 118.447C61.2487 118.33 61.2471 118.229 61.2471 118.145C61.2503 118.04 61.2536 117.869 61.2568 117.632C61.2633 117.391 61.2666 117.098 61.2666 116.753C61.2666 116.548 61.265 116.33 61.2617 116.099C61.2617 115.864 61.2601 115.627 61.2568 115.386C61.2536 115.145 61.2471 114.904 61.2373 114.663C61.2275 114.419 61.2161 114.185 61.2031 113.96C61.1901 113.735 61.1722 113.525 61.1494 113.33C61.1299 113.132 61.1055 112.956 61.0762 112.803L62.3018 112.437C62.3376 112.625 62.3685 112.853 62.3945 113.12C62.4206 113.387 62.4417 113.672 62.458 113.975C62.4775 114.274 62.4906 114.582 62.4971 114.897C62.5068 115.21 62.5117 115.508 62.5117 115.791C62.5117 115.964 62.5133 116.147 62.5166 116.343C62.5199 116.535 62.5215 116.704 62.5215 116.851C62.5215 116.974 62.5199 117.091 62.5166 117.202C62.5166 117.31 62.515 117.414 62.5117 117.515C62.5117 117.616 62.5101 117.715 62.5068 117.812C62.5068 117.91 62.5068 118.009 62.5068 118.11C62.5036 118.234 62.5068 118.351 62.5166 118.462C62.5264 118.569 62.5589 118.649 62.6143 118.701C62.7314 118.822 62.974 118.885 63.3418 118.892H63.3857C63.4704 118.892 63.5501 118.91 63.625 118.945C63.7031 118.978 63.7699 119.023 63.8252 119.082C63.8838 119.137 63.9294 119.204 63.9619 119.282C63.9977 119.357 64.0156 119.437 64.0156 119.521C64.0156 119.609 63.9977 119.692 63.9619 119.771C63.9294 119.845 63.8838 119.91 63.8252 119.966C63.7699 120.021 63.7031 120.065 63.625 120.098C63.5501 120.13 63.4704 120.146 63.3857 120.146ZM62.7461 119.521C62.7461 119.434 62.764 119.352 62.7998 119.277C62.8324 119.199 62.8779 119.132 62.9365 119.077C62.9919 119.022 63.0586 118.978 63.1367 118.945C63.2116 118.913 63.2913 118.896 63.376 118.896C63.5518 118.896 63.7015 118.883 63.8252 118.857C63.9521 118.831 64.0579 118.799 64.1426 118.76C64.2305 118.717 64.3005 118.674 64.3525 118.628C64.4046 118.579 64.4469 118.534 64.4795 118.491C64.5771 118.351 64.6699 118.182 64.7578 117.983C64.8457 117.785 64.9124 117.568 64.958 117.334C64.971 117.262 64.984 117.197 64.9971 117.139C65.0101 117.077 65.0231 117.017 65.0361 116.958C65.0524 116.896 65.0687 116.833 65.085 116.768C65.1045 116.702 65.1273 116.629 65.1533 116.548L66.208 116.885C66.1592 117.09 66.1201 117.269 66.0908 117.422C66.0648 117.572 66.0518 117.728 66.0518 117.891C66.0518 117.995 66.0697 118.096 66.1055 118.193C66.1413 118.291 66.1803 118.382 66.2227 118.467C66.278 118.356 66.3464 118.231 66.4277 118.091C66.5124 117.948 66.6084 117.799 66.7158 117.646C66.8265 117.49 66.9486 117.331 67.082 117.168C67.2188 117.005 67.3652 116.847 67.5215 116.694C67.668 116.554 67.8242 116.426 67.9902 116.309C68.1562 116.188 68.3288 116.082 68.5078 115.991C68.6868 115.897 68.8675 115.817 69.0498 115.752C69.2321 115.687 69.4111 115.64 69.5869 115.61L69.582 115.615C69.7773 115.576 69.9613 115.557 70.1338 115.557C70.4691 115.557 70.7734 115.617 71.0469 115.737C71.3236 115.854 71.5742 116.027 71.7988 116.255H71.7939C71.999 116.463 72.1504 116.694 72.248 116.948C72.3457 117.199 72.3864 117.456 72.3701 117.72C72.3408 118.035 72.2546 118.333 72.1113 118.613C71.9681 118.893 71.7744 119.136 71.5303 119.341C71.2992 119.523 71.042 119.673 70.7588 119.79C70.4788 119.904 70.1875 119.995 69.8848 120.063C69.5853 120.132 69.2858 120.179 68.9863 120.205C68.6868 120.231 68.4053 120.244 68.1416 120.244C67.8193 120.244 67.5296 120.233 67.2725 120.21C67.0153 120.19 66.7777 120.15 66.5596 120.088C66.3415 120.029 66.1348 119.945 65.9395 119.834C65.7474 119.723 65.5521 119.578 65.3535 119.399C65.1289 119.653 64.8604 119.84 64.5479 119.961C64.2354 120.081 63.8594 120.143 63.4199 120.146H63.376C63.2913 120.146 63.2116 120.13 63.1367 120.098C63.0586 120.065 62.9919 120.021 62.9365 119.966C62.8779 119.91 62.8324 119.845 62.7998 119.771C62.764 119.692 62.7461 119.609 62.7461 119.521ZM68.3613 117.544C68.2279 117.651 68.1009 117.765 67.9805 117.886C67.86 118.006 67.7493 118.127 67.6484 118.247C67.5475 118.368 67.458 118.485 67.3799 118.599C67.3018 118.709 67.2383 118.809 67.1895 118.896C67.4076 118.906 67.6533 118.916 67.9268 118.926C68.2002 118.932 68.4801 118.929 68.7666 118.916C69.0531 118.903 69.3346 118.874 69.6113 118.828C69.8913 118.783 70.1468 118.713 70.3779 118.618C70.6123 118.521 70.8125 118.392 70.9785 118.232C71.1445 118.073 71.2568 117.873 71.3154 117.632C71.2992 117.466 71.2406 117.326 71.1396 117.212C71.042 117.098 70.9199 117.01 70.7734 116.948C70.6302 116.883 70.4723 116.842 70.2998 116.826C70.1305 116.81 69.9661 116.815 69.8066 116.841C69.6829 116.86 69.556 116.895 69.4258 116.943C69.2988 116.989 69.1719 117.044 69.0449 117.109C68.918 117.171 68.7959 117.24 68.6787 117.314C68.5648 117.389 68.459 117.466 68.3613 117.544ZM73.5811 120.137C73.5973 119.87 73.612 119.6 73.625 119.326C73.638 119.053 73.6494 118.784 73.6592 118.521C73.6689 118.257 73.6755 118 73.6787 117.749C73.6852 117.498 73.6885 117.262 73.6885 117.041C73.6885 116.582 73.6836 116.174 73.6738 115.815C73.6641 115.454 73.6494 115.133 73.6299 114.854C73.6136 114.57 73.5941 114.323 73.5713 114.111C73.5518 113.896 73.5306 113.708 73.5078 113.545C73.485 113.379 73.4639 113.234 73.4443 113.11C73.4248 112.987 73.4069 112.873 73.3906 112.769L74.6455 112.344C74.652 112.363 74.6569 112.384 74.6602 112.407C74.6667 112.427 74.6732 112.458 74.6797 112.5C74.6895 112.542 74.6976 112.601 74.7041 112.676C74.7139 112.751 74.7253 112.853 74.7383 112.983C74.7546 113.11 74.7708 113.271 74.7871 113.467C74.8066 113.659 74.8294 113.895 74.8555 114.175C74.8717 114.445 74.8848 114.696 74.8945 114.927C74.9076 115.158 74.9173 115.386 74.9238 115.61C74.9303 115.832 74.9352 116.06 74.9385 116.294C74.9417 116.525 74.9434 116.777 74.9434 117.051C74.9434 117.497 74.9385 117.954 74.9287 118.423C74.9189 118.892 74.8962 119.399 74.8604 119.946L73.5811 120.137ZM90.0508 120.146C89.5137 120.146 89.0612 120.052 88.6934 119.863C88.3255 119.671 88.0342 119.357 87.8193 118.921C86.9242 119.748 85.5846 120.161 83.8008 120.161C82.7819 120.155 81.9388 120.029 81.2715 119.785C80.6074 119.538 80.1175 119.159 79.8018 118.647C79.6781 118.439 79.5885 118.223 79.5332 117.998C79.4811 117.773 79.4551 117.554 79.4551 117.339C79.4551 117.082 79.4876 116.828 79.5527 116.577V116.582C79.5918 116.423 79.6325 116.284 79.6748 116.167C79.7171 116.047 79.7562 115.946 79.792 115.864C79.8278 115.783 79.8587 115.719 79.8848 115.674C79.9108 115.628 79.9287 115.597 79.9385 115.581L80.8809 116.172C80.8483 116.23 80.8109 116.294 80.7686 116.362C80.7262 116.431 80.6855 116.51 80.6465 116.602C80.6107 116.693 80.5798 116.8 80.5537 116.924C80.5277 117.048 80.5146 117.192 80.5146 117.358C80.5146 117.472 80.5358 117.59 80.5781 117.71C80.6204 117.827 80.6742 117.938 80.7393 118.042C80.8304 118.195 80.9688 118.325 81.1543 118.433C81.3398 118.54 81.5645 118.628 81.8281 118.696C82.0951 118.765 82.3945 118.815 82.7266 118.848C83.0586 118.88 83.4167 118.896 83.8008 118.896C84.1491 118.896 84.4795 118.883 84.792 118.857C85.1045 118.831 85.3942 118.791 85.6611 118.735C85.9313 118.677 86.1755 118.604 86.3936 118.516C86.6117 118.424 86.7988 118.314 86.9551 118.184C87.0983 118.073 87.2139 117.944 87.3018 117.798C87.3896 117.651 87.4629 117.498 87.5215 117.339C87.5801 117.176 87.6289 117.01 87.668 116.841C87.707 116.672 87.7493 116.509 87.7949 116.353L88.918 116.655C88.8757 116.831 88.8301 117.007 88.7812 117.183C88.7357 117.355 88.7145 117.534 88.7178 117.72V117.715C88.7275 117.897 88.7585 118.062 88.8105 118.208C88.8626 118.351 88.9424 118.475 89.0498 118.579C89.1605 118.68 89.3005 118.758 89.4697 118.813C89.639 118.869 89.8457 118.896 90.0898 118.896C90.1777 118.896 90.2591 118.913 90.334 118.945C90.4121 118.978 90.4788 119.022 90.5342 119.077C90.5928 119.132 90.6383 119.199 90.6709 119.277C90.7035 119.352 90.7197 119.434 90.7197 119.521C90.7197 119.609 90.7035 119.692 90.6709 119.771C90.6383 119.845 90.5928 119.91 90.5342 119.966C90.4788 120.021 90.4121 120.065 90.334 120.098C90.2591 120.13 90.1777 120.146 90.0898 120.146H90.0508ZM83.2686 116.021L82.4287 115.186L83.2588 114.351L84.0986 115.19L83.2686 116.021ZM85.1143 116.03L84.2744 115.19L85.1045 114.36L85.9443 115.195L85.1143 116.03ZM89.5137 119.521C89.5137 119.434 89.5299 119.352 89.5625 119.277C89.5951 119.199 89.6406 119.132 89.6992 119.077C89.7546 119.022 89.8197 118.978 89.8945 118.945C89.9694 118.913 90.0508 118.896 90.1387 118.896H90.6416H90.8613C90.998 118.896 91.1331 118.892 91.2666 118.882C91.4001 118.869 91.5254 118.844 91.6426 118.809C91.7598 118.773 91.8623 118.722 91.9502 118.657C92.0413 118.592 92.1113 118.507 92.1602 118.403C92.196 118.325 92.2139 118.218 92.2139 118.081C92.2139 117.996 92.196 117.878 92.1602 117.725C92.1243 117.572 92.0771 117.402 92.0186 117.217C91.96 117.031 91.89 116.839 91.8086 116.641C91.7305 116.442 91.6475 116.257 91.5596 116.084L92.6875 115.527C92.7689 115.713 92.8503 115.91 92.9316 116.118C93.013 116.326 93.0846 116.541 93.1465 116.763C93.2116 116.981 93.2637 117.201 93.3027 117.422C93.3418 117.643 93.3613 117.86 93.3613 118.071C93.3613 118.387 93.3076 118.669 93.2002 118.916C93.0765 119.202 92.9023 119.438 92.6777 119.624C92.4564 119.806 92.1895 119.943 91.877 120.034C91.6914 120.086 91.5107 120.117 91.335 120.127C91.1624 120.14 91.0013 120.146 90.8516 120.146H90.1826H90.1387C90.0508 120.146 89.9694 120.13 89.8945 120.098C89.8197 120.065 89.7546 120.021 89.6992 119.966C89.6406 119.91 89.5951 119.845 89.5625 119.771C89.5299 119.692 89.5137 119.609 89.5137 119.521ZM91.7891 114.839L90.8516 113.901L91.7842 112.969L92.7217 113.906L91.7891 114.839ZM96.7744 120.146C96.3936 120.146 96.068 120.099 95.7979 120.005C95.5309 119.914 95.2998 119.774 95.1045 119.585C94.9873 119.468 94.8962 119.342 94.8311 119.209C94.7692 119.076 94.7236 118.944 94.6943 118.813C94.665 118.683 94.6471 118.561 94.6406 118.447C94.6374 118.33 94.6357 118.229 94.6357 118.145C94.639 118.04 94.6423 117.869 94.6455 117.632C94.652 117.391 94.6553 117.098 94.6553 116.753C94.6553 116.548 94.6536 116.33 94.6504 116.099C94.6504 115.864 94.6488 115.627 94.6455 115.386C94.6423 115.145 94.6357 114.904 94.626 114.663C94.6162 114.419 94.6048 114.185 94.5918 113.96C94.5788 113.735 94.5609 113.525 94.5381 113.33C94.5186 113.132 94.4941 112.956 94.4648 112.803L95.6904 112.437C95.7262 112.625 95.7572 112.853 95.7832 113.12C95.8092 113.387 95.8304 113.672 95.8467 113.975C95.8662 114.274 95.8792 114.582 95.8857 114.897C95.8955 115.21 95.9004 115.508 95.9004 115.791C95.9004 115.964 95.902 116.147 95.9053 116.343C95.9085 116.535 95.9102 116.704 95.9102 116.851C95.9102 116.974 95.9085 117.091 95.9053 117.202C95.9053 117.31 95.9036 117.414 95.9004 117.515C95.9004 117.616 95.8988 117.715 95.8955 117.812C95.8955 117.91 95.8955 118.009 95.8955 118.11C95.8923 118.234 95.8955 118.351 95.9053 118.462C95.915 118.569 95.9476 118.649 96.0029 118.701C96.1201 118.822 96.3626 118.885 96.7305 118.892H96.7744C96.859 118.892 96.9388 118.91 97.0137 118.945C97.0918 118.978 97.1585 119.023 97.2139 119.082C97.2725 119.137 97.318 119.204 97.3506 119.282C97.3864 119.357 97.4043 119.437 97.4043 119.521C97.4043 119.609 97.3864 119.692 97.3506 119.771C97.318 119.845 97.2725 119.91 97.2139 119.966C97.1585 120.021 97.0918 120.065 97.0137 120.098C96.9388 120.13 96.859 120.146 96.7744 120.146ZM96.125 119.531C96.125 119.443 96.1413 119.362 96.1738 119.287C96.2064 119.209 96.252 119.142 96.3105 119.087C96.3659 119.028 96.4326 118.983 96.5107 118.95C96.5889 118.914 96.6719 118.896 96.7598 118.896C96.9681 118.896 97.1504 118.849 97.3066 118.755C97.4661 118.66 97.6094 118.538 97.7363 118.389C97.8633 118.239 97.9772 118.071 98.0781 117.886C98.179 117.697 98.2767 117.51 98.3711 117.324C98.4557 117.158 98.5371 117 98.6152 116.851C98.6966 116.698 98.7829 116.561 98.874 116.44C99.0303 116.252 99.2077 116.1 99.4062 115.986C99.6081 115.872 99.8278 115.824 100.065 115.84C100.371 115.859 100.624 115.926 100.822 116.04C101.021 116.154 101.188 116.299 101.325 116.475C101.462 116.647 101.576 116.844 101.667 117.065C101.761 117.284 101.854 117.508 101.945 117.739C101.997 117.873 102.056 118.003 102.121 118.13C102.186 118.254 102.258 118.366 102.336 118.467C102.414 118.564 102.499 118.649 102.59 118.721C102.681 118.792 102.78 118.841 102.888 118.867C102.937 118.88 102.984 118.888 103.029 118.892C103.075 118.895 103.122 118.896 103.171 118.896C103.259 118.896 103.34 118.914 103.415 118.95C103.493 118.983 103.56 119.028 103.615 119.087C103.674 119.142 103.719 119.209 103.752 119.287C103.788 119.362 103.806 119.443 103.806 119.531C103.806 119.619 103.788 119.701 103.752 119.775C103.719 119.85 103.674 119.915 103.615 119.971C103.56 120.026 103.493 120.068 103.415 120.098C103.34 120.13 103.259 120.146 103.171 120.146C102.985 120.146 102.813 120.12 102.653 120.068C102.494 120.02 102.347 119.956 102.214 119.878C102.084 119.8 101.965 119.714 101.857 119.619C101.753 119.525 101.66 119.432 101.579 119.341C101.498 119.487 101.395 119.624 101.271 119.751C101.151 119.875 100.993 119.974 100.798 120.049C100.661 120.094 100.516 120.117 100.363 120.117C100.067 120.117 99.7513 120.05 99.416 119.917C99.3411 119.888 99.2598 119.854 99.1719 119.814C99.084 119.772 98.9945 119.727 98.9033 119.678C98.8122 119.629 98.7227 119.578 98.6348 119.526C98.5469 119.471 98.4639 119.416 98.3857 119.36C98.2588 119.484 98.14 119.595 98.0293 119.692C97.9186 119.787 97.8031 119.868 97.6826 119.937C97.5622 120.002 97.432 120.052 97.292 120.088C97.1553 120.124 96.9958 120.143 96.8135 120.146H96.75C96.6621 120.146 96.5807 120.13 96.5059 120.098C96.431 120.068 96.3659 120.026 96.3105 119.971C96.252 119.915 96.2064 119.85 96.1738 119.775C96.1413 119.701 96.125 119.619 96.125 119.531ZM99.1182 118.335C99.2321 118.416 99.3574 118.496 99.4941 118.574C99.6341 118.652 99.7708 118.722 99.9043 118.784C100.038 118.843 100.161 118.888 100.275 118.921C100.389 118.95 100.477 118.958 100.539 118.945C100.601 118.932 100.661 118.901 100.72 118.853C100.778 118.804 100.829 118.745 100.871 118.677C100.917 118.605 100.949 118.525 100.969 118.438C100.992 118.346 100.996 118.252 100.983 118.154C100.97 118.06 100.936 117.949 100.881 117.822C100.826 117.695 100.752 117.575 100.661 117.461C100.57 117.347 100.463 117.251 100.339 117.173C100.218 117.095 100.085 117.056 99.9385 117.056C99.8766 117.056 99.8148 117.09 99.7529 117.158C99.6911 117.227 99.6325 117.308 99.5771 117.402C99.5251 117.493 99.4762 117.588 99.4307 117.686C99.3883 117.78 99.3542 117.855 99.3281 117.91L99.1182 118.335ZM102.541 119.521C102.541 119.434 102.559 119.352 102.595 119.277C102.627 119.199 102.673 119.132 102.731 119.077C102.787 119.022 102.854 118.978 102.932 118.945C103.007 118.913 103.086 118.896 103.171 118.896C103.347 118.896 103.496 118.883 103.62 118.857C103.747 118.831 103.853 118.799 103.938 118.76C104.025 118.717 104.095 118.674 104.147 118.628C104.2 118.579 104.242 118.534 104.274 118.491C104.372 118.351 104.465 118.182 104.553 117.983C104.641 117.785 104.707 117.568 104.753 117.334C104.766 117.262 104.779 117.197 104.792 117.139C104.805 117.077 104.818 117.017 104.831 116.958C104.847 116.896 104.864 116.833 104.88 116.768C104.899 116.702 104.922 116.629 104.948 116.548L106.003 116.885C105.954 117.09 105.915 117.269 105.886 117.422C105.86 117.572 105.847 117.728 105.847 117.891C105.847 117.995 105.865 118.096 105.9 118.193C105.936 118.291 105.975 118.382 106.018 118.467C106.073 118.356 106.141 118.231 106.223 118.091C106.307 117.948 106.403 117.799 106.511 117.646C106.621 117.49 106.743 117.331 106.877 117.168C107.014 117.005 107.16 116.847 107.316 116.694C107.463 116.554 107.619 116.426 107.785 116.309C107.951 116.188 108.124 116.082 108.303 115.991C108.482 115.897 108.662 115.817 108.845 115.752C109.027 115.687 109.206 115.64 109.382 115.61L109.377 115.615C109.572 115.576 109.756 115.557 109.929 115.557C110.264 115.557 110.568 115.617 110.842 115.737C111.118 115.854 111.369 116.027 111.594 116.255H111.589C111.794 116.463 111.945 116.694 112.043 116.948C112.141 117.199 112.181 117.456 112.165 117.72C112.136 118.035 112.049 118.333 111.906 118.613C111.763 118.893 111.569 119.136 111.325 119.341C111.094 119.523 110.837 119.673 110.554 119.79C110.274 119.904 109.982 119.995 109.68 120.063C109.38 120.132 109.081 120.179 108.781 120.205C108.482 120.231 108.2 120.244 107.937 120.244C107.614 120.244 107.325 120.233 107.067 120.21C106.81 120.19 106.573 120.15 106.354 120.088C106.136 120.029 105.93 119.945 105.734 119.834C105.542 119.723 105.347 119.578 105.148 119.399C104.924 119.653 104.655 119.84 104.343 119.961C104.03 120.081 103.654 120.143 103.215 120.146H103.171C103.086 120.146 103.007 120.13 102.932 120.098C102.854 120.065 102.787 120.021 102.731 119.966C102.673 119.91 102.627 119.845 102.595 119.771C102.559 119.692 102.541 119.609 102.541 119.521ZM108.156 117.544C108.023 117.651 107.896 117.765 107.775 117.886C107.655 118.006 107.544 118.127 107.443 118.247C107.342 118.368 107.253 118.485 107.175 118.599C107.097 118.709 107.033 118.809 106.984 118.896C107.202 118.906 107.448 118.916 107.722 118.926C107.995 118.932 108.275 118.929 108.562 118.916C108.848 118.903 109.13 118.874 109.406 118.828C109.686 118.783 109.942 118.713 110.173 118.618C110.407 118.521 110.607 118.392 110.773 118.232C110.939 118.073 111.052 117.873 111.11 117.632C111.094 117.466 111.035 117.326 110.935 117.212C110.837 117.098 110.715 117.01 110.568 116.948C110.425 116.883 110.267 116.842 110.095 116.826C109.925 116.81 109.761 116.815 109.602 116.841C109.478 116.86 109.351 116.895 109.221 116.943C109.094 116.989 108.967 117.044 108.84 117.109C108.713 117.171 108.591 117.24 108.474 117.314C108.36 117.389 108.254 117.466 108.156 117.544ZM109.514 114.829L108.576 113.892L109.509 112.959L110.446 113.896L109.514 114.829Z" fill="#AA0002"/>
<g clip-path="url(#clip0_90_103)">
<path d="M63.2304 92.4371C54.5774 90.527 49.1416 82.9374 44.6395 80.0206C33.4231 72.7562 22.8782 70.6352 22.06 56.601C20.6572 32.5022 44.057 21.6682 64.6021 18.857C75.5406 17.3602 87.555 17.4063 97.6397 22.4046C101.806 24.4707 105.648 28.0073 108.06 32.2252C112.491 39.9797 109.797 49.1102 107.822 57.6582C105.228 68.8856 98.7425 78.9084 89.3425 85.7112C82.0569 90.9842 72.139 94.4021 63.2326 92.4349L63.2304 92.4371Z" fill="#F0F0EF"/>
<path d="M96.5659 52.0955C97.2396 51.9702 97.8799 51.79 98.5291 51.7482C99.056 51.7131 98.9448 52.245 99.0182 52.5527C99.2605 53.5638 99.4473 54.5859 99.6874 55.5969C99.7963 56.0563 99.7096 56.2871 99.2005 56.4146C97.5308 56.83 97.5375 56.8498 97.1751 55.1661C97.0039 54.3639 96.8283 53.5616 96.6615 52.7593C96.6237 52.5769 96.606 52.3901 96.5637 52.0955H96.5659Z" fill="#A5B1C2"/>
<path d="M106.519 46.9607C106.159 47.1717 105.981 47.1673 105.824 47.2003C104.634 47.453 103.44 47.6882 102.253 47.9586C101.868 48.0465 101.735 47.9542 101.635 47.5695C101.17 45.7936 101.157 45.7958 102.991 45.4111C103.749 45.2529 104.51 45.11 105.263 44.9297C105.712 44.822 105.915 44.9517 106.017 45.4045C106.137 45.932 106.348 46.442 106.519 46.9585V46.9607Z" fill="#A5B1C2"/>
<path d="M93.8247 38.8768C94.4761 38.7823 95.132 38.6042 95.7812 38.6218C96.3014 38.635 96.1458 39.2175 96.2303 39.5494C96.4837 40.5583 96.6638 41.5847 96.9039 42.5958C96.9928 42.9695 96.9128 43.1101 96.5171 43.2112C94.7118 43.6706 94.7162 43.686 94.3294 41.8814C94.1693 41.1319 94.007 40.3824 93.8492 39.6329C93.8114 39.4483 93.7402 39.2592 93.8225 38.8812L93.8247 38.8768Z" fill="#A5B1C2"/>
<path d="M95.4788 74.3015C92.7553 69.6044 90.0162 64.9183 87.2372 60.2519C86.5924 59.1683 86.5213 58.8298 87.6129 57.6056C88.3644 56.7637 89.2248 56.0142 90.0296 55.2185C93.2733 52.0183 93.3022 47.3849 90.1007 44.1516C89.3026 43.3472 88.4933 42.5537 87.6818 41.7624C87.0237 41.1206 86.6769 40.3623 86.6925 39.4369C86.708 38.5204 86.7103 37.606 86.6925 36.6894C86.6147 32.7902 84.1668 29.7394 80.414 29.08C79.0511 28.8404 77.6238 28.9239 76.2254 28.9195C75.1871 28.9151 74.34 28.5832 73.6264 27.8381C72.9083 27.0886 72.1612 26.3655 71.4165 25.6423C68.166 22.4926 63.5906 22.4157 60.229 25.4577C59.3019 26.2995 58.3948 27.1611 57.4811 28.0183C56.8674 28.5942 56.1516 28.8887 55.2978 28.8756C54.3485 28.8624 53.3969 28.8602 52.4476 28.8756C48.5413 28.9437 45.4577 31.4538 44.8151 35.2432C44.595 36.5466 44.7062 37.9093 44.704 39.2457C44.7018 40.3139 44.3594 41.2063 43.5546 41.9426C42.8075 42.6284 42.0983 43.356 41.3735 44.0681C38.0164 47.3673 38.0209 52.0029 41.3847 55.3262C42.2428 56.1703 43.1188 56.9967 43.957 57.8605C44.7862 58.7155 44.8441 59.3574 44.2638 60.3531C41.5336 65.0172 38.8079 69.6857 36.0733 74.3455C35.3841 75.5192 35.144 76.7435 35.5419 78.0579C36.2156 80.2911 38.3477 81.445 40.9667 81.0318C42.2073 80.8362 43.4567 80.7021 44.6995 80.5241C45.1153 80.4647 45.3354 80.5878 45.4999 80.99C46.0224 82.2715 46.5737 83.5419 47.1496 84.7992C47.3719 85.2849 47.6298 85.7795 47.9744 86.1817C49.9998 88.5424 53.6304 88.239 55.2756 85.5355C57.2543 82.2825 59.1641 78.9877 61.105 75.7127C61.2428 75.4797 61.394 75.2577 61.5274 75.0445C64.3598 76.616 67.1144 76.6072 69.9558 75.0774C70.1069 75.317 70.2359 75.5082 70.3515 75.7061C72.2257 78.9129 74.0999 82.1176 75.9675 85.3267C76.9301 86.9796 78.3575 87.861 80.2961 87.7401C82.2371 87.6214 83.5399 86.5598 84.2825 84.8058C84.8205 83.5309 85.3696 82.2605 85.8832 80.9768C86.0299 80.6054 86.2189 80.4735 86.6191 80.5395C87.4839 80.6823 88.351 80.8318 89.2248 80.8977C90.352 80.9834 91.5303 81.2054 92.6086 80.99C95.6611 80.3768 97.0595 77.0292 95.4788 74.3015ZM51.6228 83.1705C51.4894 82.9111 51.3804 82.7287 51.296 82.533C50.7713 81.3307 50.2555 80.124 49.7286 78.9217C48.7659 76.7193 46.9339 75.717 44.5328 76.0621C43.29 76.2402 42.045 76.4072 40.8022 76.5699C40.5998 76.5962 40.3909 76.5743 40.0574 76.5743C41.9894 73.2751 43.8703 70.0638 45.7778 66.8064C46.198 67.2987 46.5582 67.7845 46.9828 68.2109C48.4835 69.7253 50.3333 70.455 52.4632 70.5034C53.3636 70.5254 54.2662 70.5056 55.1689 70.5078C56.4984 70.5122 57.1565 70.8265 58.0724 71.9101C55.9448 75.6225 53.8127 79.3481 51.6228 83.1705ZM67.9459 70.3671C66.4697 71.7936 64.6333 71.776 63.157 70.3298C62.2966 69.4879 61.4496 68.6329 60.5803 67.7999C59.0751 66.3558 57.2587 65.6832 55.1689 65.6986C54.2907 65.7052 53.4103 65.7096 52.5321 65.6964C50.4889 65.67 49.2772 64.4501 49.2639 62.4302C49.255 60.9201 49.504 59.4123 49.066 57.9045C48.6547 56.4934 47.9811 55.2669 46.9361 54.2294C46.098 53.3986 45.2509 52.5787 44.4216 51.7391C43.1166 50.4159 43.1255 48.6817 44.4372 47.3541C45.2509 46.5299 46.0713 45.7166 46.8917 44.9011C48.4991 43.312 49.3017 41.4019 49.2683 39.149C49.255 38.2324 49.255 37.3181 49.2706 36.4037C49.295 34.7904 50.4822 33.5507 52.1097 33.4584C52.7944 33.4188 53.4859 33.4518 54.1728 33.4518C57.1676 33.687 59.5954 32.6056 61.5696 30.4054C62.1499 29.757 62.7969 29.1613 63.4305 28.5612C64.6866 27.3677 66.4564 27.3611 67.7125 28.5525C68.5507 29.3481 69.3733 30.1636 70.1825 30.9878C71.8055 32.6451 73.782 33.4474 76.1098 33.4342C76.9879 33.4276 77.8661 33.4166 78.7443 33.4386C80.6608 33.487 81.8613 34.7112 81.8991 36.6059C81.9258 37.9863 81.8947 39.3754 82.037 40.7469C82.197 42.2855 82.973 43.5823 84.0557 44.6879C84.9316 45.5825 85.8365 46.4463 86.7191 47.3343C88.0664 48.6905 88.0709 50.4203 86.728 51.7677C85.8943 52.6029 85.0406 53.4184 84.2024 54.2492C82.6728 55.7658 81.8769 57.5836 81.8969 59.7376C81.9058 60.6542 81.9036 61.5686 81.8947 62.4829C81.8769 64.4084 80.6452 65.6524 78.6998 65.6964C77.586 65.7206 76.4699 65.6986 75.3538 65.7337C73.6019 65.7909 72.0723 66.4393 70.7895 67.6042C69.8113 68.4922 68.8975 69.4484 67.9459 70.3671ZM87.2572 76.0995C84.5893 75.6973 82.744 76.6974 81.719 79.1591C81.181 80.4515 80.6452 81.7462 80.036 83.2056C79.3401 82.0187 78.7221 80.9681 78.1062 79.9174C76.6367 77.4051 75.176 74.8862 73.6908 72.3827C73.473 72.0156 73.4819 71.7892 73.7998 71.4859C74.4846 70.8353 75.2605 70.51 76.2209 70.4968C77.6883 70.4792 79.1801 70.5364 80.6141 70.2924C82.824 69.9165 84.4803 68.6065 85.6987 66.6327C87.6551 69.9649 89.5716 73.2289 91.557 76.6116C90.0207 76.4314 88.6311 76.3061 87.2572 76.0995Z" fill="#2F257E"/>
<path d="M91.557 76.6117C90.0207 76.4315 88.6312 76.3062 87.2572 76.0996C84.5893 75.6973 82.744 76.6974 81.7191 79.1592C81.1811 80.4516 80.6453 81.7462 80.0361 83.2057C79.3402 82.0188 78.7221 80.9681 78.1063 79.9175C76.6367 77.4052 75.176 74.8863 73.6909 72.3828C73.473 72.0157 73.4819 71.7893 73.7998 71.486C74.4846 70.8354 75.2605 70.5101 76.221 70.4969C77.6883 70.4793 79.1801 70.5365 80.6141 70.2925C82.824 69.9166 84.4804 68.6066 85.6987 66.6328C87.6552 69.965 89.5716 73.229 91.557 76.6117Z" fill="#AA0002"/>
<path d="M58.0724 71.9099C55.9448 75.6223 53.8127 79.3479 51.6228 83.1702C51.4894 82.9109 51.3804 82.7284 51.296 82.5328C50.7713 81.3305 50.2555 80.1238 49.7286 78.9215C48.7659 76.7191 46.9339 75.7168 44.5328 76.0619C43.29 76.2399 42.045 76.407 40.8022 76.5696C40.5998 76.596 40.3909 76.574 40.0574 76.574C41.9894 73.2748 43.8703 70.0636 45.7778 66.8062C46.198 67.2985 46.5582 67.7843 46.9828 68.2107C48.4835 69.7251 50.3333 70.4548 52.4632 70.5032C53.3636 70.5252 54.2662 70.5054 55.1689 70.5076C56.4984 70.512 57.1565 70.8263 58.0724 71.9099Z" fill="#AA0002"/>
<path d="M63.7062 51.1875C66.1095 48.8268 68.5151 46.4662 70.9184 44.1033C71.3564 43.6725 71.7766 43.2241 72.2301 42.8131C73.1595 41.9735 74.5846 41.9911 75.4494 42.8329C76.3254 43.6835 76.381 45.0902 75.4739 45.9958C72.1056 49.3631 68.7174 52.7151 65.3091 56.0429C64.2931 57.0342 62.9725 56.9704 61.9498 55.9659C60.3179 54.3636 58.6949 52.7503 57.0809 51.1303C56.1004 50.1456 56.0759 48.7675 56.9964 47.8663C57.919 46.9585 59.3197 46.9629 60.3179 47.9081C61.4629 48.9917 62.5834 50.0995 63.7084 51.1875H63.7062Z" fill="#2F257E"/>
</g>
<defs>
<clipPath id="clip0_90_103">
<rect width="88.4591" height="75" fill="white" transform="translate(22 18)"/>
</clipPath>
</defs>
</svg>
