<svg width="52" height="52" viewBox="0 0 52 52" fill="none" xmlns="http://www.w3.org/2000/svg">
<path d="M26 51C12.1924 51 1 39.8076 1 26C1 12.1924 12.1924 1 26 1C39.8076 1 51 12.1924 51 26C51 39.8076 39.8076 51 26 51Z" stroke="#AA0002" stroke-width="0.43" stroke-miterlimit="10"/>
<path d="M25.9999 16.0343C29.25 16.0343 29.6267 16.045 30.9074 16.1096C32.0912 16.1634 32.7369 16.3571 33.1674 16.5293C33.7377 16.7446 34.1359 17.0136 34.5664 17.4333C34.9969 17.8638 35.2552 18.262 35.4704 18.8324C35.6318 19.2629 35.8363 19.9086 35.8901 21.0924C35.9439 22.3731 35.9655 22.7605 35.9655 25.9998C35.9655 29.2392 35.9547 29.6266 35.8901 30.9073C35.8363 32.0911 35.6426 32.7368 35.4704 33.1673C35.2552 33.7377 34.9861 34.1359 34.5664 34.5664C34.1467 34.9968 33.7377 35.2551 33.1674 35.4704C32.7369 35.6318 32.0912 35.8363 30.9074 35.8901C29.6267 35.9439 29.2393 35.9654 25.9999 35.9654C22.7606 35.9654 22.3731 35.9546 21.0925 35.8901C19.9086 35.8363 19.2629 35.6425 18.8325 35.4704C18.2621 35.2551 17.8639 34.9861 17.4334 34.5664C17.0029 34.1359 16.7446 33.7377 16.5294 33.1673C16.368 32.7368 16.1635 32.0911 16.1097 30.9073C16.0559 29.6266 16.0343 29.2392 16.0343 25.9998C16.0343 22.7605 16.0451 22.3731 16.1097 21.0924C16.1635 19.9086 16.3572 19.2629 16.5294 18.8324C16.7446 18.262 17.0137 17.8638 17.4334 17.4333C17.8639 17.0029 18.2621 16.7446 18.8325 16.5293C19.2629 16.3679 19.9086 16.1634 21.0925 16.1096C22.3731 16.0558 22.7606 16.0343 25.9999 16.0343ZM25.9999 13.8496C22.696 13.8496 22.287 13.8604 20.9848 13.9249C19.6934 13.9787 18.8109 14.194 18.0361 14.4953C17.2397 14.8074 16.5617 15.2164 15.8837 15.8944C15.2057 16.5724 14.7967 17.2504 14.4846 18.0468C14.1833 18.8216 13.9788 19.7041 13.925 20.9955C13.8604 22.287 13.8497 22.7067 13.8497 26.0106C13.8497 29.3145 13.8604 29.7235 13.925 31.0257C13.9788 32.3171 14.1941 33.1996 14.4846 33.9744C14.7967 34.7708 15.2057 35.4488 15.8837 36.1268C16.5617 36.8048 17.2397 37.2138 18.0361 37.5259C18.8109 37.8272 19.6934 38.0317 20.9848 38.0963C22.2763 38.1501 22.696 38.1716 25.9999 38.1716C29.3038 38.1716 29.7128 38.1608 31.015 38.0963C32.3064 38.0425 33.1889 37.8272 33.9637 37.5259C34.7601 37.2138 35.4381 36.8048 36.1161 36.1268C36.7941 35.4488 37.2031 34.7708 37.5152 33.9744C37.8165 33.1996 38.021 32.3171 38.0748 31.0257C38.1286 29.7342 38.1501 29.3145 38.1501 26.0106C38.1501 22.7067 38.1394 22.2977 38.0748 20.9955C38.021 19.7041 37.8058 18.8216 37.5152 18.0468C37.2031 17.2504 36.7941 16.5724 36.1161 15.8944C35.4381 15.2164 34.7601 14.8074 33.9637 14.4953C33.1889 14.194 32.3064 13.9895 31.015 13.9249C29.7235 13.8711 29.3038 13.8496 25.9999 13.8496Z" fill="#AA0002"/>
<path d="M26.0002 19.7578C22.5564 19.7578 19.7583 22.5559 19.7583 25.9997C19.7583 29.4436 22.5564 32.2417 26.0002 32.2417C29.4441 32.2417 32.2422 29.4436 32.2422 25.9997C32.2422 22.5559 29.4441 19.7578 26.0002 19.7578ZM26.0002 30.0462C23.7617 30.0462 21.9537 28.2275 21.9537 25.9997C21.9537 23.772 23.7725 21.9533 26.0002 21.9533C28.228 21.9533 30.0467 23.772 30.0467 25.9997C30.0467 28.2275 28.228 30.0462 26.0002 30.0462Z" fill="#AA0002"/>
<path d="M33.9426 19.5105C33.9426 20.3176 33.2861 20.9741 32.4789 20.9741C31.6718 20.9741 31.0153 20.3176 31.0153 19.5105C31.0153 18.7034 31.6718 18.0469 32.4789 18.0469C33.2861 18.0469 33.9426 18.7034 33.9426 19.5105Z" fill="#AA0002"/>
</svg>
