<svg width="50" height="48" viewBox="0 0 50 48" fill="none" xmlns="http://www.w3.org/2000/svg">
<g clip-path="url(#clip0_31_281)">
<path d="M25.0219 0C37.0966 0.0967851 47.4705 8.96116 49.5914 21.0579C50.4064 25.7078 50.0003 30.2382 48.4079 34.6633C48.0977 35.5273 47.4899 35.9585 46.6819 35.9158C45.9629 35.8788 45.3273 35.4063 45.1882 34.6647C45.1145 34.2733 45.1646 33.8107 45.2981 33.4307C46.2049 30.8517 46.6847 28.1986 46.6624 25.4588C46.5748 14.8878 39.1912 5.87827 29.0092 3.89845C17.278 1.61973 5.95008 9.53476 3.73456 21.5518C2.99745 25.5527 3.33262 29.454 4.66499 33.2827C4.80964 33.6997 4.89447 34.1893 4.83328 34.6192C4.72758 35.3565 4.08504 35.8589 3.37574 35.9144C2.58856 35.9756 1.91403 35.6027 1.67481 34.8056C1.19221 33.2016 0.640071 31.5975 0.374431 29.9493C-0.704815 23.2555 0.556624 17.0157 4.27975 11.3908C8.32414 5.27906 13.9763 1.63111 21.0971 0.41703C22.3919 0.196417 23.7131 0.135215 25.0219 0Z" fill="#AA0002"/>
<path d="M24.991 13.3962C30.4095 13.3435 34.9504 17.8924 34.9977 23.4177C35.0463 29.1352 30.6473 33.8093 25.1718 33.8591C19.6462 33.9075 15.0538 29.3956 15.008 23.8718C14.9607 18.0092 19.3041 13.4517 24.991 13.3976V13.3962ZM25.0049 16.8122C21.3485 16.805 18.3611 19.8481 18.3389 23.6028C18.3166 27.3119 21.343 30.4275 24.9757 30.4347C28.632 30.4418 31.6487 27.3859 31.6667 23.6569C31.6862 19.8893 28.696 16.8178 25.0049 16.8107V16.8122Z" fill="#AA0002"/>
<path d="M43.334 46.1067C43.3034 46.8255 42.985 47.3635 42.3369 47.6567C41.6429 47.9713 41.0059 47.8204 40.4718 47.2895C39.0087 45.8335 37.3968 44.5838 35.5971 43.5946C32.5165 41.9008 29.2232 41.0739 25.7323 40.9999C22.7393 40.9373 19.8215 41.3059 17.0093 42.3976C14.2319 43.4765 11.78 45.0777 9.65904 47.2027C9.17783 47.6838 8.63264 47.9371 7.96507 47.7791C7.34617 47.6325 6.91503 47.2326 6.73979 46.5992C6.56177 45.9502 6.71198 45.3737 7.18345 44.8912C9.26545 42.762 11.6506 41.0853 14.3251 39.8271C18.6157 37.8088 23.1302 37.2751 27.7795 37.7007C33.5318 38.2273 38.4719 40.6014 42.6442 44.6735C43.0475 45.0663 43.3535 45.5004 43.3327 46.1067H43.334Z" fill="#AA0002"/>
</g>
<defs>
<clipPath id="clip0_31_281">
<rect width="50" height="47.8261" fill="white"/>
</clipPath>
</defs>
</svg>
