<svg width="52" height="52" viewBox="0 0 52 52" fill="none" xmlns="http://www.w3.org/2000/svg">
<path d="M26 51C12.1924 51 1 39.8076 1 26C1 12.1924 12.1924 1 26 1C39.8076 1 51 12.1924 51 26C51 39.8076 39.8076 51 26 51Z" stroke="#AA0002" stroke-width="0.43" stroke-miterlimit="10"/>
<path d="M19.9089 21.0386H15.3243V35.8578H19.9089V21.0386Z" fill="#AA0002"/>
<path d="M17.5948 19.1018C19.0908 19.1018 20.3068 17.875 20.3068 16.3683C20.3068 14.8616 19.0908 13.6348 17.5948 13.6348C16.0989 13.6348 14.8828 14.8616 14.8828 16.3683C14.8828 17.875 16.0989 19.1018 17.5948 19.1018Z" fill="#AA0002"/>
<path d="M27.2483 28.0875C27.2483 25.9997 28.2061 24.762 30.0464 24.762C31.7361 24.762 32.5432 25.9566 32.5432 28.0875V35.8684H37.1063V26.484C37.1063 22.5128 34.857 20.5972 31.7145 20.5972C28.5721 20.5972 27.2483 23.0509 27.2483 23.0509V21.0492H22.8467V35.8684H27.2483V28.0875Z" fill="#AA0002"/>
</svg>
