<svg width="25" height="30" viewBox="0 0 15 20" fill="none" xmlns="http://www.w3.org/2000/svg">
<g clip-path="url(#clip0_777_416)">
<path d="M7.15332 19.128C8.64216 17.5617 10.2243 15.9251 11.1888 14.0571C12.0346 12.4187 12.4832 10.7085 12.7251 8.90797C12.895 7.64365 12.7705 6.43516 12.474 5.23094C12.0571 3.53858 10.7549 1.9672 9.30141 0.847491C10.4304 0.590052 11.2267 1.40347 11.8926 1.95944C13.5085 3.3079 14.281 5.04367 14.3889 7.02099C14.6129 11.1346 12.8492 14.3879 9.98191 17.3984C9.70621 17.688 9.32765 18.0075 9.06736 18.3092C8.60926 18.8403 7.96333 19.304 7.15332 19.128Z" fill="#257CB2"/>
<path d="M7.79084 0.000597897C8.93485 0.0226973 9.31591 0.0265745 10.4299 0.431731C12.3248 1.12069 13.5055 2.44162 14.2493 4.1045C15.2209 6.27607 15.1467 8.52052 14.6058 10.796C13.8066 14.1582 10.9043 16.9854 8.21604 19.2597C7.27901 20.0522 6.94792 20.0056 6.79134 19.9967C6.00423 19.9331 6.42735 20.2321 4.85064 18.4792C3.69663 17.1622 2.5876 15.8129 1.78842 14.2796C0.865132 12.5062 0.244193 10.6614 0.0513726 8.66436C-0.174348 6.32492 0.3304 4.23671 1.8309 2.34934C3.0911 0.764774 4.76943 -0.0183999 6.88379 -0.000177523C7.18614 0.00253644 7.48849 -0.000177523 7.79125 -0.000177523L7.79084 0.000597897ZM0.91594 7.78736C0.871379 8.68142 0.967998 9.61967 1.22787 10.5354C2.11576 13.6631 3.8349 16.3453 6.26701 18.6459C6.54563 18.9092 6.70929 18.9131 6.98499 18.6421C7.6205 18.0167 8.23561 17.3766 8.79658 16.693C11.3153 13.6255 12.7879 10.247 12.2215 6.30669C11.9463 4.39257 11.0671 2.72038 9.33506 1.60339C7.21362 0.23555 4.71029 0.524781 2.94159 2.30282C1.45234 3.79976 0.79725 5.66659 0.916357 7.78736H0.91594ZM7.70296 18.6052C7.62175 18.6878 7.73461 18.8096 7.83415 18.7471C8.11401 18.5707 8.44509 18.3501 8.73703 18.121C9.11517 17.8248 10.1888 16.8001 10.4295 16.5469C12.7775 13.9733 14.2934 11.179 14.0694 7.06544C13.9615 5.08812 13.2552 3.24495 11.6397 1.8965C10.9734 1.34052 10.6407 1.00903 10.0293 1.0447C11.4827 2.16441 12.4893 3.53845 12.9066 5.2308C13.2035 6.43541 13.3281 7.64352 13.1577 8.90784C12.9158 10.7084 12.379 12.4341 11.5331 14.0721C10.6752 15.7331 9.09019 17.1994 7.70213 18.6052H7.70296Z" fill="#283C4D"/>
<path d="M0.915978 7.78756C0.797287 5.66679 1.45196 3.80035 2.94122 2.30302C4.71033 0.524983 7.21366 0.235751 9.33552 1.60398C11.0672 2.72097 11.9467 4.39277 12.222 6.30728C12.7888 10.2472 11.3158 13.6261 8.79704 16.6936C8.23607 17.3768 7.62096 18.0173 6.98544 18.6427C6.54233 19.1285 6.73349 19.0323 6.26747 18.6465C3.83535 16.3459 2.11621 13.6641 1.22832 10.536C0.968452 9.62026 0.871834 8.68201 0.916395 7.78795L0.915978 7.78756ZM10.42 7.44056C10.5295 5.96649 9.74948 4.71961 8.40723 3.81819C7.3286 3.09395 5.2638 3.12458 4.0794 4.59749C2.69384 6.32047 2.57848 8.209 3.66335 10.0192C4.64786 11.6619 6.43822 12.5851 8.47636 11.3347C9.87816 10.4748 10.4633 9.14416 10.42 7.44017V7.44056Z" fill="#E9685E"/>
<path d="M10.4198 7.44053C10.4631 9.14452 9.87801 10.4751 8.47621 11.3351C6.43806 12.5854 4.64771 11.6623 3.6632 10.0196C2.57833 8.20936 2.69368 6.32044 4.07924 4.59784C5.26365 3.12494 7.32845 3.09431 8.40708 3.81855C9.74932 4.71997 10.5293 5.96685 10.4198 7.44092V7.44053ZM9.58232 7.62973C9.559 6.5267 9.25041 5.53998 8.31796 4.77658C8.04892 4.55636 7.8711 4.55054 7.61997 4.78511C6.91824 5.4415 6.51303 6.23514 6.39725 7.13928C6.24816 8.30396 6.51511 9.38257 7.38342 10.2739C7.85485 10.7578 8.19135 10.7396 8.61572 10.2216C9.23916 9.46011 9.61481 8.61064 9.58232 7.62973ZM6.92823 11.0265C5.94081 10.0297 5.48104 8.92934 5.47396 7.66308C5.46647 6.37511 5.92124 5.25036 6.88617 4.26131C5.63805 4.15857 4.91299 4.76882 4.42657 5.63729C3.562 7.17999 3.71984 8.71416 4.7968 10.101C5.24991 10.6845 5.93665 11.1214 6.92865 11.0268L6.92823 11.0265Z" fill="#283C4D"/>
<path d="M6.92859 11.0264C5.93659 11.1214 5.24985 10.6841 4.79674 10.1006C3.71978 8.71376 3.56194 7.17959 4.42651 5.6369C4.91293 4.76843 5.63799 4.15817 6.88611 4.26091C5.92159 5.24996 5.46682 6.37471 5.4739 7.66268C5.4814 8.92894 5.94075 10.0293 6.92817 11.0261L6.92859 11.0264Z" fill="#257CB2"/>
</g>
<defs>
<clipPath id="clip0_777_416">
<rect width="15" height="20" fill="white"/>
</clipPath>
</defs>
</svg>
