<svg width="131" height="138" viewBox="0 0 131 138" fill="none" xmlns="http://www.w3.org/2000/svg">
<path d="M51.2988 116.085C51.3184 116.329 51.3086 116.57 51.2695 116.808C51.2305 117.042 51.1702 117.267 51.0889 117.481C51.0075 117.693 50.9066 117.89 50.7861 118.072C50.6689 118.255 50.5404 118.412 50.4004 118.546C50.166 118.771 49.8991 118.953 49.5996 119.093C49.3034 119.233 48.9893 119.337 48.6572 119.405C48.3285 119.474 47.9899 119.509 47.6416 119.513C47.2933 119.519 46.9515 119.498 46.6162 119.449L46.8311 118.204C47.0003 118.224 47.1484 118.24 47.2754 118.253C47.4056 118.266 47.526 118.276 47.6367 118.282C47.7474 118.285 47.8548 118.284 47.959 118.277C48.0664 118.271 48.182 118.258 48.3057 118.238C48.2829 117.958 48.2292 117.672 48.1445 117.379C48.0632 117.086 47.9622 116.796 47.8418 116.51C47.7214 116.223 47.5863 115.943 47.4365 115.67C47.29 115.396 47.1403 115.138 46.9873 114.894C46.8376 114.649 46.6911 114.425 46.5479 114.22C46.4079 114.015 46.2809 113.839 46.167 113.692C46.0563 113.543 45.9652 113.425 45.8936 113.341C45.8252 113.253 45.7894 113.207 45.7861 113.204L46.7041 112.267C47.1077 112.8 47.4642 113.341 47.7734 113.888C48.0827 114.431 48.3464 114.949 48.5645 115.44C48.7858 115.932 48.9632 116.378 49.0967 116.778C49.2334 117.175 49.3311 117.494 49.3896 117.735C49.5036 117.683 49.6208 117.604 49.7412 117.496C49.8617 117.385 49.9674 117.254 50.0586 117.101C50.1497 116.944 50.2165 116.77 50.2588 116.578C50.3044 116.383 50.3076 116.174 50.2686 115.953L49.5215 111.705L50.7324 111.412C50.7324 111.415 50.7422 111.484 50.7617 111.617C50.7812 111.751 50.8073 111.931 50.8398 112.159C50.8724 112.387 50.9082 112.652 50.9473 112.955C50.9896 113.258 51.0319 113.582 51.0742 113.927C51.1165 114.272 51.1572 114.63 51.1963 115.001C51.2354 115.369 51.2695 115.73 51.2988 116.085ZM54.8145 119.146C54.4336 119.146 54.1081 119.099 53.8379 119.005C53.571 118.914 53.3398 118.774 53.1445 118.585C53.0273 118.468 52.9362 118.342 52.8711 118.209C52.8092 118.076 52.7637 117.944 52.7344 117.813C52.7051 117.683 52.6872 117.561 52.6807 117.447C52.6774 117.33 52.6758 117.229 52.6758 117.145C52.679 117.04 52.6823 116.869 52.6855 116.632C52.6921 116.391 52.6953 116.098 52.6953 115.753C52.6953 115.548 52.6937 115.33 52.6904 115.099C52.6904 114.864 52.6888 114.627 52.6855 114.386C52.6823 114.145 52.6758 113.904 52.666 113.663C52.6562 113.419 52.6449 113.185 52.6318 112.96C52.6188 112.735 52.6009 112.525 52.5781 112.33C52.5586 112.132 52.5342 111.956 52.5049 111.803L53.7305 111.437C53.7663 111.625 53.7972 111.853 53.8232 112.12C53.8493 112.387 53.8704 112.672 53.8867 112.975C53.9062 113.274 53.9193 113.582 53.9258 113.897C53.9355 114.21 53.9404 114.508 53.9404 114.791C53.9404 114.964 53.9421 115.147 53.9453 115.343C53.9486 115.535 53.9502 115.704 53.9502 115.851C53.9502 115.974 53.9486 116.091 53.9453 116.202C53.9453 116.31 53.9437 116.414 53.9404 116.515C53.9404 116.616 53.9388 116.715 53.9355 116.812C53.9355 116.91 53.9355 117.009 53.9355 117.11C53.9323 117.234 53.9355 117.351 53.9453 117.462C53.9551 117.569 53.9876 117.649 54.043 117.701C54.1602 117.822 54.4027 117.885 54.7705 117.892H54.8145C54.8991 117.892 54.9788 117.91 55.0537 117.945C55.1318 117.978 55.1986 118.023 55.2539 118.082C55.3125 118.137 55.3581 118.204 55.3906 118.282C55.4264 118.357 55.4443 118.437 55.4443 118.521C55.4443 118.609 55.4264 118.692 55.3906 118.771C55.3581 118.845 55.3125 118.91 55.2539 118.966C55.1986 119.021 55.1318 119.065 55.0537 119.098C54.9788 119.13 54.8991 119.146 54.8145 119.146ZM54.0771 118.526C54.0771 118.438 54.0934 118.355 54.126 118.277C54.1585 118.199 54.2041 118.132 54.2627 118.077C54.3213 118.022 54.3929 117.978 54.4775 117.945C54.5589 117.913 54.6501 117.896 54.751 117.896H55.0244H55.2637C55.4492 117.896 55.6429 117.895 55.8447 117.892C56.0465 117.885 56.2386 117.867 56.4209 117.838C56.6064 117.809 56.7725 117.761 56.9189 117.696C57.0687 117.631 57.1826 117.538 57.2607 117.418V117.423C57.3747 117.25 57.4316 117.052 57.4316 116.827C57.4316 116.759 57.4251 116.687 57.4121 116.612C57.4023 116.537 57.3877 116.459 57.3682 116.378V116.383C57.3324 116.256 57.251 116.091 57.124 115.89C56.9971 115.688 56.8376 115.471 56.6455 115.24C56.4567 115.006 56.2402 114.767 55.9961 114.522C55.752 114.275 55.4948 114.042 55.2246 113.824L55.3564 112.657L59.3359 110.89L59.8291 112.052L56.5186 113.434C56.665 113.557 56.8164 113.694 56.9727 113.844C57.1289 113.99 57.2819 114.146 57.4316 114.312C57.6562 114.563 57.8467 114.807 58.0029 115.045C58.1592 115.283 58.2845 115.51 58.3789 115.729C58.4766 115.947 58.5465 116.155 58.5889 116.354C58.6344 116.549 58.6572 116.733 58.6572 116.905C58.6572 117.14 58.6263 117.354 58.5645 117.55C58.5059 117.745 58.4342 117.921 58.3496 118.077C58.0339 118.637 57.5098 118.984 56.7773 119.117V119.112C56.7025 119.129 56.6276 119.138 56.5527 119.142C56.4779 119.148 56.403 119.151 56.3281 119.151L54.751 119.146C54.6533 119.146 54.5638 119.13 54.4824 119.098C54.3978 119.065 54.3262 119.021 54.2676 118.966C54.2057 118.91 54.1585 118.845 54.126 118.771C54.0934 118.696 54.0771 118.614 54.0771 118.526ZM67.8223 122.789C67.5781 122.789 67.3258 122.766 67.0654 122.721C66.8083 122.675 66.5527 122.604 66.2988 122.506C66.0449 122.411 65.7975 122.289 65.5566 122.14C65.319 121.993 65.0993 121.816 64.8975 121.607C64.6501 121.331 64.4629 121.015 64.3359 120.66C64.209 120.309 64.1455 119.936 64.1455 119.542C64.1455 119.158 64.2074 118.788 64.3311 118.434C64.4548 118.079 64.6387 117.743 64.8828 117.428C65.1074 117.145 65.3613 116.902 65.6445 116.7C65.9277 116.498 66.2321 116.318 66.5576 116.158C66.4665 116.08 66.3786 115.991 66.2939 115.89C66.2126 115.789 66.1393 115.675 66.0742 115.548C66.0124 115.418 65.9619 115.274 65.9229 115.118C65.887 114.962 65.8691 114.788 65.8691 114.596C65.8724 114.407 65.9033 114.223 65.9619 114.044C66.0238 113.862 66.1051 113.691 66.2061 113.531C66.3102 113.372 66.4323 113.224 66.5723 113.087C66.7155 112.95 66.8701 112.833 67.0361 112.735C67.2054 112.634 67.3828 112.555 67.5684 112.496C67.7539 112.438 67.9443 112.405 68.1396 112.398C68.3317 112.389 68.5189 112.403 68.7012 112.442C68.8835 112.481 69.0609 112.538 69.2334 112.613C69.4092 112.688 69.5801 112.778 69.7461 112.882C69.9121 112.986 70.0765 113.098 70.2393 113.219L69.5264 114.195C69.3896 114.088 69.2513 113.995 69.1113 113.917C68.9876 113.849 68.846 113.787 68.6865 113.731C68.5303 113.673 68.3691 113.647 68.2031 113.653C68.0469 113.663 67.8971 113.701 67.7539 113.766C67.6139 113.831 67.4967 113.922 67.4023 114.039C67.347 114.107 67.2982 114.197 67.2559 114.308C67.2168 114.415 67.194 114.527 67.1875 114.645C67.181 114.762 67.1956 114.876 67.2314 114.986C67.2705 115.097 67.3421 115.188 67.4463 115.26C67.5602 115.335 67.7067 115.396 67.8857 115.445C68.0648 115.494 68.2715 115.519 68.5059 115.519C68.5775 115.519 68.6507 115.517 68.7256 115.514C68.8037 115.507 68.8851 115.497 68.9697 115.484C69.1195 115.465 69.2676 115.444 69.4141 115.421C69.5638 115.398 69.6989 115.377 69.8193 115.357L70.2246 115.289L70.498 116.539C70.3353 116.559 70.1497 116.586 69.9414 116.622C69.7363 116.655 69.5199 116.694 69.292 116.739C69.0674 116.782 68.8395 116.829 68.6084 116.881C68.3773 116.933 68.1559 116.987 67.9443 117.042C67.736 117.097 67.5423 117.154 67.3633 117.213C67.1875 117.271 67.041 117.328 66.9238 117.384C66.8457 117.423 66.7513 117.475 66.6406 117.54C66.5332 117.605 66.4209 117.685 66.3037 117.779C66.1898 117.87 66.0758 117.975 65.9619 118.092C65.848 118.209 65.7454 118.341 65.6543 118.487C65.5664 118.634 65.4948 118.793 65.4395 118.966C65.3841 119.138 65.3564 119.326 65.3564 119.527C65.3564 119.85 65.4264 120.133 65.5664 120.377C65.7064 120.621 65.8919 120.825 66.123 120.987C66.3542 121.15 66.6178 121.272 66.9141 121.354C67.2135 121.438 67.5228 121.48 67.8418 121.48C68.2487 121.48 68.6605 121.407 69.0771 121.261C69.4938 121.118 69.8844 120.895 70.249 120.592L70.9766 121.642C70.6771 121.889 70.3874 122.088 70.1074 122.237C69.8307 122.387 69.5605 122.503 69.2969 122.584C69.0365 122.665 68.7826 122.719 68.5352 122.745C68.291 122.774 68.0534 122.789 67.8223 122.789ZM72.2559 121.344C72.7344 121.249 73.1657 121.122 73.5498 120.963C73.9372 120.807 74.2725 120.631 74.5557 120.436C74.8389 120.24 75.0684 120.032 75.2441 119.811C75.4232 119.589 75.542 119.368 75.6006 119.146C75.5225 119.146 75.4378 119.146 75.3467 119.146C75.2588 119.146 75.1709 119.145 75.083 119.142C74.9951 119.142 74.9105 119.14 74.8291 119.137C74.7477 119.133 74.6761 119.129 74.6143 119.122C74.2497 119.096 73.9225 119.02 73.6328 118.893C73.3464 118.766 73.1152 118.593 72.9395 118.375C72.8158 118.219 72.7262 118.046 72.6709 117.857C72.6188 117.665 72.5928 117.462 72.5928 117.247C72.5928 117.081 72.6074 116.913 72.6367 116.744C72.6693 116.575 72.7132 116.41 72.7686 116.251C72.8271 116.088 72.8939 115.935 72.9688 115.792C73.0436 115.649 73.125 115.519 73.2129 115.401C73.3887 115.177 73.584 115.007 73.7988 114.894C74.0137 114.776 74.2383 114.718 74.4727 114.718C74.9772 114.718 75.4378 114.942 75.8545 115.392C75.9912 115.545 76.1149 115.715 76.2256 115.904C76.3363 116.093 76.4323 116.295 76.5137 116.51C76.5951 116.725 76.6602 116.949 76.709 117.184C76.7611 117.418 76.7936 117.656 76.8066 117.896H77.0361C77.124 117.896 77.2054 117.913 77.2803 117.945C77.3584 117.978 77.4251 118.022 77.4805 118.077C77.5391 118.132 77.5846 118.199 77.6172 118.277C77.653 118.355 77.6709 118.438 77.6709 118.526C77.6709 118.611 77.653 118.691 77.6172 118.766C77.5846 118.84 77.5391 118.907 77.4805 118.966C77.4251 119.021 77.3584 119.065 77.2803 119.098C77.2054 119.13 77.124 119.146 77.0361 119.146H76.709C76.5983 119.625 76.4111 120.058 76.1475 120.445C75.887 120.833 75.5729 121.17 75.2051 121.456C74.8372 121.746 74.4255 121.983 73.9697 122.169C73.5173 122.354 73.0436 122.486 72.5488 122.564L72.2559 121.344ZM74.4727 115.973C74.388 115.973 74.2969 116.008 74.1992 116.08C74.1016 116.152 74.012 116.244 73.9307 116.358C73.8493 116.469 73.7809 116.593 73.7256 116.729C73.6735 116.866 73.6475 117 73.6475 117.13C73.6475 117.267 73.6784 117.381 73.7402 117.472C73.8053 117.56 73.8867 117.631 73.9844 117.687C74.0853 117.742 74.1976 117.784 74.3213 117.813C74.4482 117.84 74.5736 117.859 74.6973 117.872C74.7656 117.875 74.8405 117.879 74.9219 117.882C75.0033 117.885 75.0863 117.888 75.1709 117.892C75.2588 117.892 75.3451 117.892 75.4297 117.892C75.5143 117.888 75.5941 117.883 75.6689 117.877C75.6527 117.695 75.6185 117.522 75.5664 117.359C75.5143 117.197 75.4525 117.047 75.3809 116.91C75.3092 116.77 75.2327 116.645 75.1514 116.534C75.07 116.42 74.9935 116.321 74.9219 116.236V116.241C74.8665 116.183 74.7982 116.124 74.7168 116.065C74.6387 116.004 74.5573 115.973 74.4727 115.973ZM76.4014 118.521C76.4014 118.434 76.4176 118.352 76.4502 118.277C76.4827 118.199 76.5283 118.132 76.5869 118.077C76.6455 118.022 76.7139 117.978 76.792 117.945C76.8669 117.913 76.9482 117.896 77.0361 117.896H78.0029C78.4066 117.896 78.8167 117.859 79.2334 117.784C79.6533 117.706 80.07 117.605 80.4834 117.481C80.8968 117.354 81.3005 117.21 81.6943 117.047C82.0882 116.884 82.4609 116.716 82.8125 116.544C82.5326 116.482 82.2721 116.401 82.0312 116.3C81.7904 116.196 81.5625 116.095 81.3477 115.997C81.1328 115.899 80.9261 115.815 80.7275 115.743C80.529 115.672 80.332 115.636 80.1367 115.636C80.0228 115.636 79.9154 115.657 79.8145 115.699C79.7168 115.738 79.6257 115.789 79.541 115.851C79.4564 115.912 79.3799 115.981 79.3115 116.056C79.2464 116.131 79.1878 116.204 79.1357 116.275C79.0869 116.344 79.0462 116.406 79.0137 116.461C78.9811 116.516 78.9583 116.555 78.9453 116.578L77.9297 115.919C78.0404 115.724 78.1722 115.535 78.3252 115.353C78.4782 115.167 78.6475 115.003 78.833 114.859C79.0218 114.713 79.2253 114.597 79.4434 114.513C79.6615 114.425 79.8926 114.381 80.1367 114.381C80.3874 114.381 80.6364 114.415 80.8838 114.483C81.1312 114.549 81.3753 114.633 81.6162 114.737C81.8604 114.838 82.1045 114.947 82.3486 115.064C82.5928 115.182 82.8385 115.292 83.0859 115.396C83.3366 115.497 83.5889 115.584 83.8428 115.655C84.0967 115.724 84.3571 115.759 84.624 115.763L84.5215 117.022C84.0658 117.241 83.5905 117.472 83.0957 117.716C82.6009 117.96 82.0833 118.186 81.543 118.395C81.0026 118.6 80.4378 118.774 79.8486 118.917C79.2627 119.057 78.6475 119.133 78.0029 119.146H77.0752H77.0361C76.9482 119.146 76.8669 119.13 76.792 119.098C76.7139 119.065 76.6455 119.021 76.5869 118.966C76.5283 118.907 76.4827 118.84 76.4502 118.766C76.4176 118.691 76.4014 118.609 76.4014 118.521ZM80.7764 121.71L79.8389 120.772L80.7715 119.84L81.709 120.777L80.7764 121.71ZM88.8672 119.146C88.8281 119.146 88.7777 119.145 88.7158 119.142C88.654 119.142 88.5856 119.135 88.5107 119.122C88.4359 119.109 88.3561 119.088 88.2715 119.059C88.1901 119.033 88.1087 118.993 88.0273 118.941C87.985 119.352 87.8597 119.744 87.6514 120.118C87.443 120.496 87.181 120.849 86.8652 121.178C86.5527 121.507 86.1995 121.808 85.8057 122.081C85.415 122.354 85.013 122.594 84.5996 122.799L84.0527 121.671C84.2806 121.554 84.5101 121.427 84.7412 121.29C84.9691 121.153 85.1872 121.007 85.3955 120.851C85.6038 120.694 85.7975 120.532 85.9766 120.362C86.1589 120.193 86.3151 120.016 86.4453 119.83C86.5788 119.645 86.6829 119.454 86.7578 119.259C86.8359 119.063 86.875 118.863 86.875 118.658C86.875 118.632 86.8734 118.606 86.8701 118.58C86.8701 118.551 86.8685 118.523 86.8652 118.497V118.502C86.8424 118.32 86.805 118.136 86.7529 117.95C86.7008 117.761 86.6423 117.579 86.5771 117.403C86.5153 117.228 86.4535 117.06 86.3916 116.9C86.3298 116.738 86.2777 116.591 86.2354 116.461L87.4072 115.973C87.5342 116.354 87.653 116.669 87.7637 116.92C87.8776 117.167 87.9915 117.364 88.1055 117.511C88.2194 117.654 88.335 117.755 88.4521 117.813C88.5726 117.869 88.7044 117.896 88.8477 117.896H88.8721C88.96 117.896 89.0413 117.914 89.1162 117.95C89.1943 117.983 89.2611 118.028 89.3164 118.087C89.375 118.142 89.4206 118.209 89.4531 118.287C89.4857 118.362 89.502 118.442 89.502 118.526C89.502 118.614 89.4857 118.696 89.4531 118.771C89.4206 118.845 89.375 118.912 89.3164 118.971C89.2611 119.026 89.1943 119.068 89.1162 119.098C89.0381 119.13 88.9551 119.146 88.8672 119.146ZM88.208 118.521C88.208 118.434 88.2243 118.354 88.2568 118.282C88.2894 118.207 88.3333 118.142 88.3887 118.087C88.444 118.028 88.5091 117.983 88.584 117.95C88.6589 117.918 88.7402 117.9 88.8281 117.896C89.0658 117.896 89.2725 117.853 89.4482 117.765C89.624 117.674 89.7786 117.556 89.9121 117.413C90.0488 117.27 90.1676 117.109 90.2686 116.93C90.3727 116.751 90.4704 116.572 90.5615 116.393C90.6462 116.217 90.734 116.046 90.8252 115.88C90.9196 115.711 91.0205 115.558 91.1279 115.421C91.2874 115.235 91.4665 115.09 91.665 114.986C91.8669 114.882 92.0801 114.83 92.3047 114.83C92.5716 114.83 92.8174 114.885 93.042 114.996C93.2666 115.107 93.4668 115.266 93.6426 115.475C93.7793 115.641 93.89 115.831 93.9746 116.046C94.0625 116.257 94.1195 116.485 94.1455 116.729V116.72C94.165 116.847 94.1748 116.983 94.1748 117.13C94.1748 117.296 94.1602 117.457 94.1309 117.613C94.1048 117.77 94.0641 117.921 94.0088 118.067C93.9111 118.315 93.7712 118.523 93.5889 118.692C93.4066 118.862 93.208 118.979 92.9932 119.044C92.9215 119.063 92.8499 119.076 92.7783 119.083C92.7067 119.093 92.6335 119.098 92.5586 119.098C92.4219 119.098 92.277 119.08 92.124 119.044C91.9743 119.011 91.8213 118.966 91.665 118.907C91.5967 118.878 91.5202 118.844 91.4355 118.805C91.3509 118.762 91.2646 118.717 91.1768 118.668C91.0889 118.619 91.001 118.569 90.9131 118.517C90.8285 118.461 90.7487 118.408 90.6738 118.355C90.4167 118.609 90.14 118.805 89.8438 118.941C89.5508 119.078 89.2122 119.146 88.8281 119.146C88.7402 119.146 88.6589 119.13 88.584 119.098C88.5091 119.065 88.444 119.021 88.3887 118.966C88.3333 118.907 88.2894 118.84 88.2568 118.766C88.2243 118.691 88.208 118.609 88.208 118.521ZM91.4062 117.325C91.5137 117.403 91.6341 117.477 91.7676 117.545C91.9043 117.61 92.0378 117.667 92.168 117.716C92.3014 117.765 92.4251 117.804 92.5391 117.833C92.653 117.859 92.7425 117.872 92.8076 117.872C92.8499 117.872 92.8906 117.867 92.9297 117.857C92.9622 117.851 92.9948 117.831 93.0273 117.799C93.0632 117.763 93.0941 117.716 93.1201 117.657C93.1462 117.599 93.1673 117.53 93.1836 117.452C93.1999 117.374 93.2048 117.286 93.1982 117.188C93.195 117.149 93.182 117.094 93.1592 117.022C93.1396 116.948 93.1104 116.868 93.0713 116.783C93.0355 116.699 92.9899 116.612 92.9346 116.524C92.8792 116.437 92.8158 116.358 92.7441 116.29C92.6758 116.218 92.5977 116.16 92.5098 116.114C92.4251 116.069 92.3324 116.046 92.2314 116.046C92.1403 116.046 92.0492 116.118 91.958 116.261C91.8701 116.404 91.7546 116.617 91.6113 116.9L91.4062 117.325Z" fill="#AA0002"/>
<g clip-path="url(#clip0_90_54)">
<path d="M25.7015 65.0113C24.5259 54.9743 33.5295 47.0553 38.0451 39.03C38.3146 38.551 38.4313 37.923 39.0148 37.6505C39.0275 37.9422 39.0509 38.2317 39.0509 38.5233C39.0509 48.6647 39.0509 58.8039 39.053 68.9452C39.053 71.1038 38.6074 74.0968 40.7994 75.406C42.7601 76.5768 45.75 76.0446 47.9292 76.0425C50.8809 76.0425 53.8347 76.0382 56.7864 76.0382C62.5582 76.034 68.3278 76.0318 74.0996 76.0276C74.7892 76.0276 75.7059 72.4555 72.2535 72.5109C67.1013 72.5939 61.9576 72.6769 56.8076 72.7025C54.1827 72.7152 51.5217 72.3661 48.9244 72.7642C47.2311 73.0239 44.3579 73.7349 42.8365 72.5364C41.1686 71.223 42.5076 68.4641 42.5076 66.6483C42.5055 62.8698 42.5033 59.0934 42.5033 55.3149C42.5033 47.8941 42.5033 40.4754 42.5033 33.0546C42.5033 32.8949 42.5097 32.7353 42.5033 32.5777C42.4842 32.1137 42.6943 31.8987 43.1654 31.9008C46.2677 31.9178 49.3722 31.9263 52.4745 31.937L52.6209 32.0839C52.6209 37.0715 52.6209 42.0592 52.6209 47.0447C52.5085 47.1064 52.5191 47.1618 52.6294 47.2129C52.657 47.9388 53.0071 48.5093 53.6649 48.7285C54.2846 48.935 54.9042 48.8435 55.4686 48.3347C57.6946 46.3294 59.9057 44.305 62.0192 42.1826C62.6494 41.5504 62.991 41.6419 63.6255 42.3423C64.6695 43.4918 65.8048 44.5583 66.9846 45.5673C68.001 46.438 68.9368 47.3853 69.9023 48.3049C71.0354 49.3842 72.9007 48.6881 72.8582 47.3832C72.9367 47.347 73.0068 47.3044 72.9558 47.198C72.9643 42.321 72.9813 37.444 72.9643 32.5692C72.9643 32.0094 73.1065 31.8689 73.6603 31.8752C76.4868 31.905 79.3154 31.888 82.1419 31.8923C82.4708 31.8923 82.8485 31.8029 83.0204 32.2286C83.0416 32.2861 83.0649 32.3436 83.0862 32.3989C83.0947 38.0252 83.1053 43.6515 83.1137 49.2756C83.0098 49.3842 83.0671 49.414 83.1816 49.4182C84.0538 49.4225 84.9302 49.3821 85.7959 49.448C86.4198 49.4949 86.5174 49.2692 86.5153 48.6987C86.4919 43.5003 86.4941 38.3041 86.511 33.1057C86.5132 32.301 86.3328 31.5112 86.197 30.73C86.3285 31.4367 88.1322 32.2925 88.6839 32.78C91.1009 34.9215 100.692 43.1938 103.474 55.1808C104.911 61.3712 105.428 68.2023 103.296 74.2522C96.1872 94.4221 73.637 95.3417 56.1307 90.6712C46.8088 88.1849 37.1496 84.0742 30.737 76.5683C28.0887 73.4688 26.2023 69.2752 25.7015 65.0092V65.0113ZM93.1804 76.0254C93.0701 72.2299 91.5613 69.0134 88.9492 66.3588C86.3179 63.6851 83.0246 62.3397 79.2157 62.1481C79.7037 61.4414 80.4125 61.1029 80.9302 60.5495C81.4438 60.0024 82.0676 59.5575 82.6618 59.0913C83.0416 58.7932 83.2411 58.5825 82.7488 58.1525C82.1801 57.6544 81.6856 57.0583 81.2167 56.4623C80.9939 56.1791 80.9069 56.077 80.5907 56.3601C79.5807 57.2669 78.5345 58.1376 77.5054 59.0232C76.3956 59.9768 75.2858 60.9284 74.1845 61.8927C72.6333 63.2487 72.3574 64.1236 73.8343 65.469C74.976 66.51 76.1664 67.4956 77.3271 68.5131C78.2714 69.3412 79.2072 70.182 80.1451 71.0208C80.6607 71.4806 81.1148 71.5019 81.5668 70.9058C81.8575 70.5226 82.1249 70.1203 82.492 69.784C82.9143 69.3965 82.9037 68.7813 82.4644 68.4109C81.4353 67.5445 80.4188 66.6611 79.343 65.7393C80.3722 65.552 81.2888 65.7862 82.1482 66.0821C86.9163 67.734 89.7767 71.885 89.8574 76.8301C89.8807 78.2095 89.8722 79.589 89.8786 80.9684C89.8319 81.0897 89.885 81.1281 89.9996 81.1132C91.0542 81.1132 92.1088 81.1132 93.1613 81.1132C93.2759 81.1281 93.3289 81.0919 93.2823 80.9684C93.2801 79.4868 93.2759 78.0073 93.2738 76.5257C93.3226 76.3426 93.3799 76.1596 93.1783 76.0254H93.1804Z" fill="#F0F0EF"/>
<path d="M39.015 37.6503C39.0277 35.8494 39.0404 34.0485 39.0489 32.2476C39.0553 30.8362 40.1184 29.1311 41.6568 28.6734C42.0027 28.5712 42.3295 28.6266 42.6584 28.5606C42.72 28.5287 42.7836 28.4967 42.8452 28.4627C43.0298 28.4542 43.2144 28.4393 43.399 28.4393C52.6317 28.4307 61.8644 28.418 71.0951 28.418C74.9571 28.418 78.819 28.4456 82.6789 28.4627C82.7638 28.5968 82.8911 28.584 83.0227 28.5606C84.5399 28.6457 85.4269 29.625 86.1717 30.8043C86.3606 31.56 86.5112 32.3136 86.507 33.1076C86.49 38.306 86.49 43.5023 86.5112 48.7007C86.5133 49.269 86.4157 49.4968 85.7919 49.45C84.924 49.384 84.0497 49.4244 83.1776 49.4202C83.1543 49.3734 83.133 49.3244 83.1097 49.2776C83.1012 43.6513 83.0906 38.025 83.0821 32.4009C83.1373 32.3136 83.0821 32.271 83.0163 32.2306C82.8423 31.8048 82.4667 31.8942 82.1378 31.8942C79.3114 31.89 76.4827 31.907 73.6563 31.8772C73.1024 31.8708 72.9581 32.0113 72.9603 32.5712C72.9772 37.4481 72.9603 42.3251 72.9518 47.1999C72.92 47.2616 72.886 47.3234 72.8542 47.3851C72.8966 48.6879 71.0314 49.3861 69.8983 48.3068C69.041 47.4915 68.2092 46.6528 67.3222 45.8652C65.9832 44.6773 64.7121 43.4107 63.4411 42.1505C62.9169 41.6311 62.5838 41.6141 62.0172 42.1824C59.9016 44.3048 57.6926 46.3292 55.4667 48.3345C54.9001 48.8433 54.2826 48.9348 53.663 48.7283C53.0052 48.5091 52.6551 47.9386 52.6275 47.2127C52.6254 47.1573 52.6232 47.0998 52.619 47.0445C52.619 42.0568 52.619 37.0692 52.619 32.0837C52.6699 31.9772 52.6317 31.9325 52.5193 31.9368C49.3999 31.9261 46.2806 31.9176 43.1613 31.9006C42.6903 31.8985 42.4802 32.1135 42.4993 32.5775C42.5056 32.7372 42.4993 32.8969 42.4993 33.0544C42.4993 45.8716 42.4993 58.6887 42.5078 71.5038C42.5078 71.8614 42.3041 72.3276 42.8324 72.5362C42.9215 72.6427 43.0234 72.6938 43.1592 72.6193C43.9995 72.6193 44.8419 72.6193 45.6822 72.6193C45.7417 72.6193 45.799 72.6235 45.8584 72.6235C46.1745 72.6342 46.4907 72.6555 46.8069 72.6555C56.1584 72.6555 65.5079 72.6555 74.8594 72.6576C75.148 72.6576 75.4387 72.6789 75.7273 72.6916C75.7188 73.805 75.7104 74.9183 75.704 76.0316C64.6761 76.0316 53.6503 76.038 42.6223 76.0338C41.2834 76.0338 39.8277 74.9247 39.3481 73.5751C39.2463 73.2856 39.1529 72.9939 39.0553 72.7023C39.2611 72.5448 39.2378 72.3808 39.0723 72.2105C39.0638 71.1228 39.0489 70.035 39.0489 68.9472C39.0489 58.8058 39.0489 48.6666 39.0468 38.5253C39.0468 38.2336 39.0235 37.9441 39.0107 37.6525L39.015 37.6503ZM69.5354 43.1957C69.5354 39.4406 69.5248 35.9154 69.546 32.3902C69.5481 31.8197 69.2065 31.9112 68.8733 31.9112C64.7991 31.9112 60.7271 31.9261 56.6529 31.9027C56.1096 31.9006 56.0057 32.0837 56.0099 32.5797C56.0311 35.1001 56.0205 37.6205 56.0205 40.1431C56.0205 41.1117 56.0205 42.0824 56.0205 43.1915C57.9452 41.4076 59.7573 39.7301 61.5674 38.0484C62.1552 37.5035 63.3244 37.4673 63.9185 38.0037C64.6824 38.6934 65.4336 39.398 66.189 40.0963C67.25 41.0755 68.3089 42.0568 69.5375 43.1936L69.5354 43.1957Z" fill="#2F257E"/>
<path d="M93.1635 81.1128C92.1089 81.1128 91.0543 81.1128 90.0018 81.1128C89.9615 81.0639 89.9211 81.017 89.8808 80.9681C89.8745 79.5887 89.8808 78.2092 89.8596 76.8298C89.7768 71.8847 86.9185 67.7337 82.1505 66.0818C81.2911 65.7837 80.3765 65.5517 79.3452 65.739C80.421 66.6608 81.4375 67.5442 82.4666 68.4106C83.1626 68.996 83.2008 69.1514 82.5218 69.7581C82.142 70.0987 81.8682 70.5117 81.569 70.9055C81.117 71.5015 80.6608 71.4803 80.1473 71.0205C79.2094 70.1839 78.2757 69.343 77.3293 68.5128C76.1686 67.4952 74.9782 66.5075 73.8365 65.4687C72.3596 64.1233 72.6355 63.2484 74.1867 61.8924C75.288 60.9302 76.3999 59.9786 77.5076 59.0228C78.5367 58.1373 79.5829 57.2687 80.5929 56.3598C80.907 56.0766 80.9961 56.181 81.2189 56.4619C81.6879 57.0601 82.1823 57.654 82.751 58.1522C83.2433 58.5822 83.0459 58.7929 82.664 59.091C82.0698 59.5571 81.4438 60.0021 80.9324 60.5491C80.4147 61.1026 79.7059 61.4411 79.2179 62.1478C83.0247 62.3394 86.3201 63.6848 88.9514 66.3585C91.5635 69.013 93.0723 72.2296 93.1826 76.0251C93.1678 76.2018 93.1126 76.3849 93.2781 76.5254C93.2802 78.007 93.2845 79.4865 93.2866 80.9681C93.2463 81.017 93.206 81.0639 93.1656 81.1128H93.1635Z" fill="#2F257E"/>
<path d="M75.7083 76.0295C75.7167 74.9161 75.7252 73.8028 75.7316 72.6895C75.9671 73.8049 76.0159 74.9183 75.7083 76.0295Z" fill="#A5B1C2"/>
<path d="M39.0785 72.2085C39.244 72.3788 39.2674 72.5448 39.0615 72.7002C39.0679 72.5363 39.0721 72.3724 39.0785 72.2085Z" fill="#515151"/>
<path d="M93.2759 76.5256C93.1104 76.3852 93.1656 76.1999 93.1805 76.0254C93.382 76.1595 93.3248 76.3447 93.2759 76.5256Z" fill="#515151"/>
<path d="M43.1635 72.6173C43.0298 72.6918 42.9258 72.6428 42.8367 72.5342C42.9619 72.4917 43.0765 72.498 43.1635 72.6173Z" fill="#A5B1C2"/>
<path d="M52.5212 31.9348C52.6337 31.9306 52.6719 31.9774 52.621 32.0817C52.587 32.0328 52.5552 31.9838 52.5212 31.9348Z" fill="#A5B1C2"/>
<path d="M83.0205 32.2285C83.0863 32.269 83.1415 32.3115 83.0863 32.3988C83.0651 32.3413 83.0417 32.2839 83.0205 32.2285Z" fill="#A5B1C2"/>
<path d="M52.6211 47.0444C52.6232 47.0998 52.6254 47.1573 52.6296 47.2126C52.5193 47.1615 52.5108 47.104 52.6211 47.0444Z" fill="#A5B1C2"/>
<path d="M72.8584 47.3854C72.8902 47.3237 72.9242 47.2619 72.956 47.2002C73.0069 47.3066 72.9369 47.3471 72.8584 47.3854Z" fill="#515151"/>
<path d="M83.1138 49.2778C83.1371 49.3247 83.1583 49.3736 83.1817 49.4205C83.0671 49.4162 83.0098 49.3864 83.1138 49.2778Z" fill="#A5B1C2"/>
<path d="M45.8626 72.6236C45.8032 72.6236 45.7459 72.6193 45.6865 72.6193C45.7481 72.5065 45.8075 72.5129 45.8626 72.6236Z" fill="#A5B1C2"/>
<path d="M89.8809 80.9683C89.9212 81.0172 89.9616 81.0641 90.0019 81.113C89.8873 81.1279 89.8342 81.0917 89.8809 80.9683Z" fill="#515151"/>
<path d="M93.1636 81.113C93.2039 81.0641 93.2442 81.0172 93.2845 80.9683C93.3312 81.0896 93.2782 81.1258 93.1636 81.113Z" fill="#515151"/>
<path d="M82.6831 28.4647C78.8211 28.4498 74.9591 28.42 71.0992 28.42C61.8665 28.42 52.6338 28.4327 43.4032 28.4413C43.2186 28.4413 43.0339 28.4562 42.8493 28.4647C42.7963 28.454 42.7432 28.4455 42.6902 28.4349C43.5687 23.9539 45.9708 20.7075 50.2954 19.045C51.9526 18.4063 53.6799 18.1424 55.4602 18.0423C60.3535 17.7635 64.9582 18.9598 69.4589 20.6798C73.7453 22.319 77.7537 24.5073 81.5181 27.13C82.0486 27.5004 82.785 27.6941 82.9993 28.4434C82.8953 28.4498 82.7892 28.4583 82.6852 28.4647H82.6831Z" fill="#F0F0EF"/>
<path d="M39.9423 23.8349C39.4903 23.3601 39.0128 22.9408 38.6394 22.4427C38.338 22.0382 38.8261 21.8466 39.0362 21.6231C39.7279 20.8951 40.4579 20.2032 41.1518 19.4773C41.468 19.1474 41.6993 19.0941 42.0664 19.4369C43.2716 20.5566 43.2844 20.5438 42.1088 21.721C41.5486 22.283 40.9905 22.845 40.4282 23.4048C40.3009 23.5326 40.1587 23.6433 39.9423 23.8327V23.8349Z" fill="#A5B1C2"/>
<path d="M30.6055 18.5578C30.9641 18.7345 31.0533 18.8814 31.1615 18.9878C31.9848 19.8095 32.7975 20.644 33.6315 21.4529C33.901 21.7147 33.8967 21.8723 33.64 22.1532C32.4432 23.4646 32.4538 23.4752 31.1891 22.2043C30.6671 21.6807 30.1557 21.1442 29.6167 20.6354C29.2941 20.331 29.2963 20.1011 29.6082 19.7797C29.9732 19.4029 30.2745 18.9665 30.6055 18.5557V18.5578Z" fill="#A5B1C2"/>
<path d="M30.6692 33.0139C30.2533 32.5392 29.7695 32.1092 29.4448 31.5791C29.1838 31.1533 29.7356 30.9724 29.9605 30.7297C30.6438 29.9932 31.3801 29.3077 32.0761 28.5797C32.3329 28.3115 32.4878 28.3008 32.7742 28.5648C34.0856 29.7697 34.0962 29.759 32.8358 31.0235C32.3116 31.5472 31.7918 32.0751 31.2655 32.5966C31.1361 32.7244 31.0194 32.8798 30.6692 33.016V33.0139Z" fill="#A5B1C2"/>
<path d="M82.6831 28.4651C82.7871 28.4587 82.8932 28.4502 82.9972 28.4438C83.0014 28.4843 83.012 28.5247 83.0269 28.5631C82.8974 28.5843 82.7701 28.5992 82.6831 28.4651Z" fill="#515151"/>
<path d="M42.688 28.4351C42.741 28.4457 42.7941 28.4542 42.8471 28.4649C42.7856 28.4968 42.7219 28.5287 42.6604 28.5628C42.6731 28.5223 42.6837 28.4798 42.688 28.4372V28.4351Z" fill="#515151"/>
<path d="M69.5375 43.1982C68.3089 42.0614 67.25 41.0801 66.189 40.1008C65.4336 39.4026 64.6803 38.698 63.9185 38.0083C63.3243 37.4718 62.1551 37.508 61.5673 38.053C59.7573 39.7347 57.9451 41.4122 56.0205 43.196C56.0205 42.087 56.0205 41.1184 56.0205 40.1477C56.0205 37.6272 56.0332 35.1047 56.0099 32.5842C56.0056 32.0882 56.1075 31.903 56.6528 31.9073C60.727 31.9286 64.7991 31.9158 68.8733 31.9158C69.2065 31.9158 69.5502 31.8243 69.546 32.3948C69.5269 35.92 69.5354 39.4452 69.5354 43.2003L69.5375 43.1982Z" fill="#AA0002"/>
</g>
<defs>
<clipPath id="clip0_90_54">
<rect width="79.1286" height="75" fill="white" transform="translate(25.5977 18)"/>
</clipPath>
</defs>
</svg>
