<svg width="52" height="52" viewBox="0 0 52 52" fill="none" xmlns="http://www.w3.org/2000/svg">
<path d="M26 51C12.1924 51 1 39.8076 1 26C1 12.1924 12.1924 1 26 1C39.8076 1 51 12.1924 51 26C51 39.8076 39.8076 51 26 51Z" stroke="#AA0002" stroke-width="0.43" stroke-miterlimit="10"/>
<path d="M14.1941 34.4375C16.3357 35.815 18.8863 36.6114 21.6199 36.6114C30.6168 36.6114 35.6965 29.0135 35.3951 22.1904C36.3422 21.5124 37.1601 20.6515 37.8166 19.6829C36.9449 20.0703 36.0086 20.3286 35.0292 20.447C36.0301 19.8443 36.7942 18.8973 37.1601 17.7673C36.2238 18.3269 35.1907 18.7251 34.0822 18.9403C33.1997 17.9933 31.9406 17.4121 30.5415 17.4121C27.4098 17.4121 25.1175 20.3286 25.817 23.3635C21.7921 23.159 18.2191 21.2326 15.8299 18.2946C14.56 20.4685 15.1734 23.3204 17.3258 24.7625C16.5295 24.741 15.7869 24.515 15.1304 24.1599C15.0766 26.4091 16.6909 28.5077 19.0155 28.9704C18.3375 29.1534 17.5841 29.1964 16.8308 29.0565C17.4442 30.9829 19.2415 32.382 21.3616 32.425C19.3276 34.0178 16.7555 34.7388 14.1833 34.4267L14.1941 34.4375Z" fill="#AA0002"/>
</svg>
