<svg width="52" height="52" viewBox="0 0 52 52" fill="none" xmlns="http://www.w3.org/2000/svg">
<path d="M26 51C12.1924 51 1 39.8076 1 26C1 12.1924 12.1924 1 26 1C39.8076 1 51 12.1924 51 26C51 39.8076 39.8076 51 26 51Z" stroke="#AA0002" stroke-width="0.43" stroke-miterlimit="10"/>
<path fill-rule="evenodd" clip-rule="evenodd" d="M41.1204 24.7835C40.9267 17.0134 34.5234 10.7822 26.6564 10.7822C18.7894 10.7822 12.5367 16.8735 12.1923 24.5144C12.1923 24.7297 12.1816 24.9342 12.1816 25.1494C12.1816 27.8614 12.9457 30.4012 14.2586 32.5644L11.6542 40.27L19.6719 37.7194C21.7489 38.8601 24.1273 39.5059 26.6672 39.5059C34.6633 39.5059 41.142 33.0702 41.142 25.1387C41.142 25.0203 41.142 24.8911 41.142 24.7728L41.1204 24.7835ZM26.6564 37.2243C24.1811 37.2243 21.8888 36.4925 19.9625 35.2226L15.2918 36.7185L16.8092 32.2308C15.3563 30.2398 14.4954 27.7969 14.4954 25.1494C14.4954 24.7512 14.5169 24.3638 14.56 23.9764C15.1519 17.8636 20.3607 13.0745 26.6672 13.0745C32.9737 13.0745 38.3116 17.9927 38.7959 24.2131C38.8281 24.5252 38.8389 24.8373 38.8389 25.1602C38.8389 31.8218 33.3719 37.2351 26.6672 37.2351L26.6564 37.2243Z" fill="#AA0002"/>
<path fill-rule="evenodd" clip-rule="evenodd" d="M33.2856 28.0554C32.9305 27.8832 31.1871 27.0223 30.8642 26.9147C30.5413 26.7963 30.3046 26.7425 30.0678 27.0869C29.831 27.442 29.1423 28.2276 28.9378 28.4644C28.7226 28.7012 28.5288 28.7334 28.1629 28.5505C27.8078 28.3783 26.667 28.0124 25.311 26.807C24.2564 25.8815 23.546 24.73 23.3416 24.3749C23.1371 24.0197 23.3201 23.8368 23.4923 23.6538C23.6537 23.4924 23.8474 23.2448 24.0304 23.0404C24.0734 22.9758 24.1164 22.922 24.1595 22.8682C24.2456 22.739 24.2994 22.6207 24.3855 22.4485C24.5039 22.2117 24.4501 22.0072 24.3532 21.835C24.2671 21.6628 23.5568 19.9194 23.2555 19.2199C22.9649 18.5204 22.6636 18.6387 22.4591 18.6387C22.2546 18.6387 22.0179 18.6064 21.7811 18.6064C21.5443 18.6064 21.1569 18.6925 20.8341 19.0477C20.5112 19.4028 19.5964 20.253 19.5964 21.9857C19.5964 22.3947 19.6718 22.8036 19.7794 23.1803C20.1345 24.4179 20.9094 25.4403 21.0493 25.6232C21.2215 25.8492 23.503 29.5298 27.1083 30.9396C30.7243 32.3387 30.7243 31.8759 31.37 31.8113C32.0157 31.7575 33.4686 30.9612 33.7592 30.1325C34.0605 29.3146 34.0605 28.6043 33.9744 28.4536C33.8883 28.3137 33.6515 28.2276 33.2964 28.0447L33.2856 28.0554Z" fill="#AA0002"/>
</svg>
